<?xml version="1.0" standalone="no"?>
<!DOCTYPE svg PUBLIC "-//W3C//DTD SVG 20010904//EN"
 "http://www.w3.org/TR/2001/REC-SVG-20010904/DTD/svg10.dtd">
<svg version="1.0" xmlns="http://www.w3.org/2000/svg"
 width="256.000000pt" height="256.000000pt" viewBox="0 0 256.000000 256.000000"
 preserveAspectRatio="xMidYMid meet">
<metadata>
Created by potrace 1.14, written by Peter Selinger 2001-2017
</metadata>
<g transform="translate(0.000000,256.000000) scale(0.100000,-0.100000)"
fill="#000000" stroke="none">
<path d="M716 2292 c-3 -6 -17 -9 -30 -8 -17 2 -27 -4 -35 -20 -6 -13 -15 -24
-21 -24 -5 0 -9 -3 -8 -7 3 -12 -38 -73 -45 -68 -4 3 -5 2 -2 -2 3 -3 -5 -18
-17 -32 -19 -21 -20 -23 -3 -11 19 14 19 14 2 -6 -9 -11 -14 -24 -10 -28 5 -4
1 -6 -7 -4 -8 2 -14 -3 -13 -9 2 -7 -2 -13 -7 -13 -6 0 -10 -7 -10 -15 0 -8
-5 -15 -11 -15 -5 0 -8 -4 -5 -9 3 -5 -1 -12 -9 -15 -8 -3 -14 -11 -13 -18 2
-7 -3 -12 -10 -10 -8 1 -11 -2 -7 -8 4 -6 -1 -18 -11 -26 -11 -9 -13 -13 -4
-9 10 4 9 2 -2 -8 -10 -8 -15 -17 -11 -20 3 -4 0 -7 -7 -7 -7 0 -10 -3 -7 -7
4 -3 -1 -12 -11 -20 -11 -10 -12 -12 -2 -8 8 4 4 -3 -10 -15 -14 -12 -18 -19
-10 -15 8 4 2 -5 -15 -20 -16 -14 -28 -27 -26 -28 8 -4 -11 -47 -20 -47 -5 0
-9 -7 -9 -15 0 -8 -5 -15 -11 -15 -5 0 -7 -4 -4 -10 3 -5 1 -10 -4 -10 -6 0
-11 -7 -11 -15 0 -8 -4 -15 -10 -15 -5 0 -10 -5 -10 -11 0 -7 -8 -18 -18 -26
-11 -10 -12 -12 -2 -8 8 4 6 -1 -5 -10 -11 -9 -19 -19 -18 -23 0 -4 -3 -6 -8
-5 -4 2 -6 -4 -3 -12 4 -8 1 -15 -5 -15 -6 0 -11 -7 -11 -15 0 -8 -8 -23 -18
-33 -10 -10 -24 -32 -31 -50 -7 -17 -17 -29 -22 -26 -5 3 -9 2 -8 -3 4 -21 -2
-34 -13 -27 -6 4 -8 3 -5 -3 3 -5 -5 -27 -20 -47 -25 -38 -37 -96 -20 -96 5 0
6 -7 3 -16 -3 -8 -2 -12 4 -9 6 3 14 -5 20 -19 5 -14 14 -26 20 -26 6 0 9 -4
5 -9 -3 -5 2 -16 10 -24 8 -9 15 -20 15 -26 0 -6 5 -11 11 -11 5 0 7 -4 4 -10
-3 -5 -1 -10 5 -10 6 0 8 -4 5 -10 -3 -5 -2 -10 4 -10 5 0 13 -9 16 -20 4 -11
18 -32 31 -45 14 -14 20 -25 13 -25 -7 0 -2 -8 9 -19 12 -10 19 -21 15 -25 -3
-3 -1 -6 5 -6 7 0 19 -18 28 -40 9 -23 21 -37 27 -33 6 4 8 0 4 -10 -4 -11 -1
-17 9 -17 8 0 13 -4 9 -9 -3 -5 -1 -12 5 -16 6 -4 8 -10 6 -14 -3 -4 4 -14 15
-21 10 -8 19 -20 19 -27 0 -7 5 -13 11 -13 5 0 8 -4 4 -9 -3 -5 -1 -12 4 -16
6 -3 7 -13 4 -23 -6 -15 -5 -16 12 -2 16 13 18 13 13 0 -2 -8 1 -21 9 -28 7
-8 11 -18 8 -23 -4 -5 -1 -9 4 -9 6 0 11 -7 11 -16 0 -8 5 -12 10 -9 6 3 10
-3 10 -14 0 -11 8 -25 18 -30 9 -6 13 -11 7 -11 -5 0 -5 -4 2 -8 6 -4 13 -14
15 -21 2 -8 11 -23 21 -33 10 -10 15 -23 12 -28 -3 -5 0 -12 6 -16 8 -5 9 -3
4 6 -5 9 -4 11 3 6 7 -4 12 -15 12 -24 1 -22 24 -52 40 -52 10 0 9 -4 -1 -17
-11 -13 -11 -15 -1 -9 9 5 15 1 19 -13 3 -12 10 -21 15 -21 5 0 7 -4 4 -9 -3
-5 3 -11 14 -14 11 -3 20 -1 20 5 0 5 5 6 10 3 6 -3 10 -1 10 5 0 6 6 8 13 4
6 -4 9 -4 5 1 -4 4 -2 15 5 23 10 13 9 15 -3 8 -9 -4 -8 -2 2 7 10 8 15 17 11
20 -3 4 -1 7 6 7 7 0 9 5 6 10 -4 6 -1 9 7 8 7 -2 13 6 13 17 1 11 6 19 13 18
7 -2 9 4 5 14 -4 11 -3 14 5 9 7 -4 12 -1 12 8 0 9 5 16 11 16 5 0 7 5 4 10
-3 6 0 13 9 16 8 3 17 13 20 21 5 12 3 13 -7 7 -7 -5 -5 -2 5 7 9 9 14 19 11
23 -4 3 -1 6 5 6 7 0 12 7 12 16 0 8 5 12 10 9 6 -4 13 7 16 24 4 17 10 29 14
26 4 -3 11 2 14 11 4 10 2 13 -7 9 -6 -4 -1 2 12 13 19 15 21 21 10 26 -8 3
-4 4 9 2 18 -4 21 -2 12 9 -8 9 -8 14 0 17 6 2 12 12 14 21 1 10 9 23 17 27 8
5 14 15 14 22 1 7 7 12 14 10 7 -1 10 2 6 8 -3 5 3 20 14 32 12 12 21 30 21
40 0 11 4 17 9 13 5 -3 15 11 21 30 6 19 15 33 20 30 5 -3 11 -1 15 5 3 5 1
10 -4 10 -6 0 -3 9 6 19 9 11 21 17 26 14 5 -3 4 4 -2 16 -9 17 -9 21 1 19 7
-2 12 5 12 14 -1 10 3 16 10 15 6 -1 10 4 9 11 -2 6 2 12 7 12 6 0 10 7 10 16
0 8 4 13 9 10 5 -3 12 1 15 10 4 10 2 13 -7 9 -6 -4 -2 3 11 14 13 11 23 22
22 25 -1 22 1 26 12 20 6 -4 8 -3 4 4 -3 6 4 21 16 33 13 12 17 19 11 15 -19
-10 -16 -1 4 15 11 10 14 10 9 1 -8 -14 19 -12 43 2 9 6 12 5 7 -2 -7 -11 39
-11 50 1 4 3 17 -1 30 -10 20 -12 23 -13 19 -1 -4 9 1 14 14 14 11 0 17 -4 15
-8 -6 -10 26 -5 45 6 10 7 12 6 6 -4 -6 -10 -4 -12 7 -7 9 3 21 0 27 -6 9 -9
11 -8 5 7 -6 16 -5 17 14 7 12 -7 22 -9 22 -5 0 3 7 1 15 -6 13 -11 14 -10 8
6 -5 16 -4 17 8 7 20 -16 31 -17 40 -1 7 10 9 10 9 1 0 -7 5 -13 11 -13 5 0 7
5 3 12 -5 7 -3 8 7 3 18 -12 49 -14 55 -3 3 4 16 1 30 -8 23 -16 24 -15 17 1
-4 13 -3 16 6 11 18 -12 61 -14 67 -5 3 5 16 2 30 -7 19 -13 23 -14 19 -2 -4
9 1 14 14 14 11 0 17 -4 15 -8 -6 -10 26 -5 45 6 10 7 12 6 6 -4 -6 -10 -4
-12 7 -7 9 3 21 0 27 -6 9 -9 11 -8 5 7 -6 16 -5 17 14 7 12 -7 22 -9 22 -5 0
3 7 1 15 -6 13 -11 14 -10 9 5 -6 14 -4 16 7 9 19 -12 33 -12 41 1 5 6 8 6 8
-2 0 -7 5 -13 11 -13 5 0 7 5 3 12 -5 7 -3 8 7 3 18 -12 49 -14 55 -3 3 4 16
1 30 -8 23 -16 24 -15 17 1 -4 13 -3 16 6 11 18 -12 61 -14 67 -5 3 5 16 2 30
-7 23 -15 24 -15 18 1 -6 15 -4 16 14 6 12 -7 22 -9 22 -5 0 3 7 1 15 -6 13
-11 14 -10 9 5 -6 15 -4 16 14 6 14 -7 23 -8 27 -1 3 5 3 10 -1 10 -3 0 -1 7
6 15 9 10 9 15 1 15 -6 0 -11 7 -11 15 0 8 -5 15 -12 15 -6 0 -8 3 -5 7 4 3 0
11 -9 18 -9 6 -17 23 -17 37 -2 17 -6 24 -16 20 -9 -3 -12 -1 -8 5 4 6 1 18
-7 26 -8 8 -12 17 -9 21 4 3 -2 6 -13 7 -11 0 -14 3 -6 6 8 3 4 11 -13 25 -14
11 -25 26 -25 34 0 19 -25 46 -34 37 -3 -4 -6 -1 -6 6 0 7 -6 11 -14 8 -7 -3
-19 0 -25 6 -9 9 -10 8 -5 -7 5 -14 4 -17 -5 -12 -21 13 -92 16 -85 4 5 -7 2
-8 -7 -2 -20 13 -80 14 -72 1 4 -6 1 -7 -8 -1 -20 13 -80 14 -72 1 4 -6 1 -7
-8 -1 -21 13 -80 14 -72 0 3 -6 0 -6 -8 2 -16 14 -43 16 -34 2 9 -15 -2 -12
-19 6 -9 8 -16 11 -16 5 0 -6 -7 -7 -17 -4 -11 4 -14 3 -9 -5 5 -8 2 -10 -8
-6 -9 3 -16 14 -17 23 0 11 -3 9 -9 -6 -11 -27 -23 -29 -44 -7 -9 8 -16 11
-16 5 0 -6 -7 -7 -17 -4 -11 4 -14 3 -9 -5 5 -8 2 -10 -8 -6 -9 3 -16 11 -16
18 0 6 -5 3 -11 -6 -12 -22 -23 -23 -43 -2 -9 8 -16 11 -16 5 0 -6 -7 -7 -17
-4 -11 4 -14 3 -9 -5 5 -8 2 -10 -8 -6 -9 3 -16 11 -16 18 0 6 -5 3 -11 -6
-12 -22 -23 -23 -43 -2 -9 8 -16 11 -16 5 0 -6 -7 -7 -17 -4 -11 4 -14 3 -9
-5 5 -8 2 -10 -8 -6 -9 3 -16 11 -16 18 0 6 -5 3 -11 -6 -12 -22 -23 -23 -43
-2 -9 8 -16 11 -16 5 0 -6 -7 -7 -17 -4 -12 5 -14 3 -8 -7 6 -10 4 -11 -6 -4
-8 5 -25 10 -39 11 -20 3 -22 1 -10 -7 8 -5 11 -10 6 -10 -5 0 -18 8 -29 18
-11 9 -17 11 -12 3 6 -10 2 -12 -15 -6 -15 5 -20 4 -16 -4 5 -7 1 -9 -8 -5 -9
3 -16 11 -16 18 0 6 -5 3 -11 -6 -12 -22 -23 -23 -43 -2 -9 8 -16 11 -16 5 0
-6 -7 -7 -17 -4 -12 5 -14 3 -8 -8 7 -11 6 -12 -6 -2 -11 9 -19 8 -34 -3 -11
-8 -20 -20 -20 -27 -1 -7 -7 -11 -15 -9 -8 2 -12 0 -8 -4 4 -4 3 -13 -3 -21
-6 -7 -9 -13 -5 -13 3 0 -2 -9 -11 -19 -40 -44 -43 -49 -30 -54 7 -3 4 -6 -5
-6 -10 -1 -17 -4 -17 -8 4 -22 -2 -33 -13 -27 -8 5 -9 2 -5 -9 4 -11 1 -17 -9
-17 -9 0 -12 -5 -8 -12 4 -6 -5 -22 -22 -36 -16 -13 -23 -21 -17 -18 8 4 6 -5
-5 -23 -9 -17 -20 -31 -24 -31 -5 0 -8 -7 -8 -16 0 -9 -5 -12 -12 -8 -7 4 -8
3 -4 -5 9 -13 -18 -43 -30 -33 -5 4 -3 0 4 -9 10 -14 10 -18 -3 -23 -8 -3 -15
-12 -15 -21 0 -8 -4 -15 -9 -15 -5 0 -11 -9 -14 -21 -4 -13 -10 -18 -18 -13
-7 4 -10 3 -6 -3 9 -14 -20 -70 -41 -82 -9 -5 -14 -12 -10 -16 3 -4 -2 -15
-13 -26 -11 -11 -18 -23 -15 -28 3 -4 -1 -8 -9 -8 -8 0 -11 5 -8 10 4 7 -1 8
-13 4 -18 -7 -18 -7 0 8 20 15 20 15 0 15 -18 1 -18 2 -2 14 14 10 15 15 5 25
-9 10 -9 12 3 9 8 -2 14 3 13 10 -2 6 4 12 13 12 8 0 12 5 9 10 -4 6 4 20 17
31 13 11 17 18 11 14 -9 -4 -11 -1 -7 9 3 9 10 14 14 11 8 -5 26 33 22 48 -1
4 4 7 11 7 13 0 47 65 47 88 0 7 5 12 11 12 5 0 7 -5 3 -12 -4 -7 -3 -8 5 -4
6 4 9 11 6 16 -3 5 0 12 6 15 5 4 8 13 5 21 -3 8 0 13 7 11 7 -1 11 6 9 16 -2
10 3 16 10 15 7 -2 12 3 11 10 -2 6 2 12 7 12 6 0 10 7 10 16 0 8 4 12 10 9 6
-3 7 1 4 9 -4 9 1 18 10 22 9 3 13 10 10 15 -3 5 0 9 6 9 6 0 8 5 5 10 -3 6
-1 10 4 10 6 0 10 6 8 13 -1 6 3 11 10 10 6 -1 14 4 17 13 4 10 2 13 -6 8 -7
-4 -8 -3 -4 4 4 7 14 12 21 12 9 0 12 6 9 15 -4 10 0 15 12 16 17 0 17 1 -1 8
-19 8 -19 8 3 15 13 4 22 15 22 27 0 10 5 19 11 19 5 0 8 4 5 9 -3 4 5 8 17 7
12 -1 25 3 29 9 5 6 8 6 8 -2 0 -8 9 -9 30 -3 17 5 31 10 33 11 1 1 12 -3 25
-10 14 -7 22 -8 22 -1 0 5 5 10 11 10 5 0 8 -4 4 -9 -3 -6 6 -6 25 -1 21 6 30
5 30 -3 0 -9 2 -9 8 0 5 8 13 9 22 3 18 -12 33 -13 27 -2 -3 4 18 6 46 4 72
-3 141 -2 146 3 2 3 10 0 18 -6 8 -7 13 -8 13 -1 0 12 33 10 42 -3 5 -6 8 -5
8 3 0 9 5 10 19 2 23 -12 34 -13 28 -2 -6 9 85 8 100 -1 6 -4 14 -1 16 5 4 9
6 9 6 1 1 -8 10 -9 31 -3 21 6 30 5 30 -3 0 -9 2 -9 8 0 5 8 13 9 22 3 8 -5
21 -5 29 -1 19 9 32 8 49 -2 7 -5 12 -3 12 4 0 8 5 7 17 -2 11 -10 14 -10 9
-1 -8 13 19 13 42 -1 7 -5 12 -3 12 4 0 8 5 7 17 -2 11 -10 14 -10 9 -1 -8 13
19 13 42 -1 7 -5 12 -3 12 4 0 8 5 7 17 -2 11 -10 14 -10 9 -1 -8 13 19 13 42
-1 7 -5 12 -3 12 4 0 8 4 8 13 1 15 -13 60 -4 51 9 -3 5 0 9 5 9 6 0 11 -5 11
-12 0 -6 3 -9 6 -6 3 4 -1 19 -10 36 -8 16 -12 32 -9 36 4 3 -1 6 -11 6 -9 0
-15 4 -12 9 3 5 -1 14 -9 21 -8 7 -15 21 -15 32 0 10 -4 16 -10 13 -6 -3 -10
4 -10 16 0 12 -3 19 -7 16 -3 -4 -13 2 -21 14 -8 11 -12 23 -9 26 3 3 -5 15
-18 28 -14 12 -22 24 -19 27 2 3 -7 3 -22 0 -16 -3 -29 1 -35 9 -7 11 -9 10
-9 -4 0 -15 -3 -16 -21 -6 -15 7 -19 8 -15 0 5 -7 1 -9 -8 -5 -9 3 -16 11 -16
18 0 6 -4 5 -9 -3 -5 -8 -18 -12 -30 -8 -12 3 -21 2 -21 -1 0 -7 -646 -6 -722
0 -21 2 -38 1 -38 -3 0 -11 -50 -1 -67 13 -12 9 -15 9 -9 1 5 -9 1 -13 -11
-13 -11 0 -25 6 -32 13 -10 10 -11 9 -6 -4 5 -13 0 -16 -21 -13 -15 1 -31 9
-35 16 -7 11 -9 11 -9 -1 0 -9 -11 -12 -40 -9 -22 2 -40 1 -40 -3 0 -4 -8 -6
-17 -5 -9 0 -22 -9 -29 -22 -6 -12 -20 -30 -30 -38 -11 -9 -13 -12 -5 -9 9 5
8 -1 -4 -19 -10 -14 -22 -26 -28 -26 -6 0 -7 -3 -4 -6 3 -4 1 -16 -5 -28 -7
-11 -11 -25 -10 -30 2 -5 -5 -3 -15 4 -10 8 -15 10 -11 6 4 -5 3 -15 -2 -22
-6 -6 -9 -18 -8 -25 2 -8 -3 -13 -10 -11 -8 1 -11 -1 -8 -6 8 -14 -24 -53 -37
-45 -7 4 -5 -2 3 -12 13 -17 13 -18 -1 -13 -13 5 -16 2 -11 -14 4 -16 1 -20
-10 -16 -11 5 -15 0 -14 -15 1 -12 -4 -21 -11 -20 -7 2 -10 -3 -7 -10 2 -7 -5
-23 -16 -35 -11 -12 -17 -22 -13 -22 4 0 -3 -10 -17 -21 -14 -11 -19 -18 -11
-14 13 8 -12 -38 -36 -63 -6 -6 -15 -21 -18 -32 -3 -11 -11 -20 -16 -20 -5 0
-8 -6 -6 -12 1 -7 -3 -12 -10 -11 -7 2 -10 -4 -7 -12 4 -8 1 -15 -6 -15 -7 0
-10 -7 -6 -16 4 -10 2 -14 -6 -11 -7 2 -12 10 -10 17 2 11 0 11 -12 1 -11 -9
-16 -9 -22 0 -5 8 -3 9 5 4 9 -5 12 -2 9 11 -2 11 3 25 12 32 10 9 10 11 1 6
-9 -5 -12 -3 -7 4 4 7 15 12 24 12 15 0 15 2 2 10 -10 6 -11 10 -2 10 6 0 12
7 12 15 0 9 7 18 15 21 8 4 13 9 10 14 -2 4 4 16 14 26 9 11 16 25 13 32 -2 7
2 11 10 10 8 -2 12 4 10 16 -2 11 1 15 7 11 6 -3 11 2 11 13 0 11 12 31 26 46
17 17 22 26 13 27 -8 0 -4 4 9 10 13 5 20 13 17 19 -3 5 -3 10 2 10 4 0 14 14
21 30 8 17 18 28 23 24 9 -5 13 9 10 33 -1 6 8 18 19 26 11 7 17 17 13 21 -4
4 -1 11 7 16 8 5 15 15 15 22 1 7 7 12 14 10 7 -1 10 2 7 7 -4 5 0 16 8 24 8
8 12 17 9 21 -4 3 -1 6 6 6 7 0 9 5 6 10 -3 6 -2 10 4 10 5 0 13 9 16 20 4 12
11 17 18 14 7 -4 9 -4 5 1 -4 4 -3 16 3 26 8 15 14 17 29 9 12 -6 21 -7 25 0
3 5 12 7 20 3 9 -3 15 1 15 8 0 9 3 10 8 4 10 -14 56 -15 64 -1 6 8 8 8 8 -1
0 -16 32 -17 48 -1 8 8 15 8 25 0 10 -9 17 -8 27 1 7 6 10 7 7 1 -4 -7 7 -11
33 -11 26 0 37 4 33 11 -4 6 1 5 10 -3 14 -11 17 -11 17 0 0 8 5 6 13 -6 9
-12 16 -14 21 -7 4 6 14 8 23 5 12 -5 14 -3 8 8 -8 12 -6 12 9 0 15 -13 19
-13 27 0 5 8 9 9 9 3 0 -17 28 -25 36 -12 5 7 2 8 -6 3 -9 -5 -11 -4 -6 4 6 9
11 9 23 0 12 -10 16 -10 24 2 5 8 9 9 9 3 0 -17 28 -25 36 -12 5 7 2 8 -6 3
-9 -5 -11 -4 -6 4 6 9 11 9 23 0 12 -10 16 -10 24 2 5 8 9 9 9 3 0 -17 28 -25
36 -12 5 7 2 8 -6 3 -9 -5 -11 -4 -6 4 6 9 11 9 23 0 12 -10 16 -10 24 2 5 8
9 9 9 3 0 -17 28 -25 36 -12 5 7 2 8 -6 3 -9 -5 -11 -4 -6 4 6 9 11 9 23 0 12
-10 16 -10 24 2 5 8 9 9 9 3 0 -17 28 -25 36 -12 5 7 2 8 -6 3 -9 -5 -11 -4
-6 4 6 9 11 9 23 0 12 -10 16 -10 24 2 5 8 9 9 9 3 0 -17 28 -25 36 -12 5 7 2
8 -6 3 -9 -5 -11 -4 -6 4 6 9 11 9 23 0 12 -10 16 -10 24 2 5 8 9 9 9 3 0 -17
28 -25 36 -12 5 7 2 8 -6 3 -9 -5 -11 -4 -6 4 6 9 11 9 23 0 12 -10 16 -10 24
2 5 8 9 9 9 3 0 -7 7 -15 16 -18 10 -4 13 -2 8 6 -5 8 -2 9 9 5 10 -3 17 -2
17 4 0 6 7 3 16 -6 12 -12 19 -13 30 -4 7 6 18 8 23 5 5 -4 13 -2 16 4 4 7 11
8 18 1 17 -13 52 13 41 31 -5 7 -9 15 -10 18 -2 16 -29 60 -36 60 -4 0 -8 9
-8 21 0 11 -4 18 -8 15 -4 -2 -14 10 -22 27 -7 18 -19 37 -24 44 -35 39 -36
41 -23 46 7 3 4 6 -5 6 -10 1 -19 6 -19 11 -1 6 -2 14 -3 19 0 5 -5 13 -10 18
-5 5 -6 2 -2 -7 5 -9 2 -8 -7 2 -8 10 -17 15 -20 11 -4 -3 -14 0 -24 8 -9 8
-14 9 -10 3 4 -7 -15 -11 -58 -11 -39 -1 -62 3 -59 9 3 5 -4 4 -15 -4 -18 -11
-23 -11 -31 2 -5 8 -10 10 -10 5 0 -6 -39 -11 -95 -11 -59 -1 -93 2 -89 8 3 5
-4 4 -15 -4 -18 -11 -23 -11 -31 2 -5 8 -10 10 -10 5 0 -13 -159 -14 -179 -1
-9 6 -12 5 -7 -2 8 -13 -52 -11 -73 2 -9 6 -12 5 -7 -2 8 -13 -52 -11 -73 2
-9 6 -12 5 -7 -2 8 -13 -52 -11 -73 2 -8 5 -12 5 -8 0 3 -5 -48 -9 -119 -10
-74 -1 -121 3 -118 8 3 5 -4 4 -15 -4 -18 -11 -23 -11 -30 1 -5 8 -11 9 -15 3z"/>
<path d="M1280 1920 c-9 -6 -10 -10 -3 -10 6 0 15 5 18 10 8 12 4 12 -15 0z"/>
<path d="M590 1519 c0 -5 5 -7 10 -4 6 3 10 8 10 11 0 2 -4 4 -10 4 -5 0 -10
-5 -10 -11z"/>
<path d="M1683 1214 c3 -6 -49 -9 -131 -8 -86 0 -142 -3 -151 -10 -11 -8 -13
-8 -8 0 9 15 -44 16 -63 1 -8 -7 -22 -21 -30 -31 -13 -18 -13 -19 0 -12 8 5 3
-3 -12 -16 -15 -14 -25 -28 -21 -31 3 -4 -7 -19 -23 -33 -16 -15 -23 -23 -16
-20 17 10 15 3 -7 -22 -10 -12 -22 -18 -27 -14 -4 4 -3 0 3 -8 8 -11 8 -18 -2
-27 -7 -6 -16 -9 -19 -5 -4 3 -4 -2 0 -12 4 -11 3 -17 -2 -13 -5 3 -14 -6 -21
-19 -7 -16 -8 -22 -1 -17 7 3 8 1 4 -5 -4 -7 -14 -12 -22 -12 -8 0 -14 -5 -14
-11 0 -5 6 -7 13 -4 6 4 1 -4 -13 -17 -14 -13 -26 -31 -28 -39 -2 -8 -10 -19
-19 -26 -8 -7 -13 -19 -10 -27 4 -9 1 -15 -6 -13 -7 1 -11 -4 -9 -10 1 -7 -2
-13 -8 -13 -5 0 -10 -8 -10 -17 0 -16 -2 -16 -11 -3 -9 12 -10 11 -6 -5 4 -21
-16 -49 -27 -37 -4 3 -4 -1 -1 -10 3 -8 -2 -23 -12 -33 -10 -10 -26 -34 -35
-54 -10 -20 -18 -31 -19 -26 0 6 -4 -1 -8 -15 -4 -14 -14 -24 -21 -22 -11 3
-11 0 0 -13 11 -14 11 -16 -1 -13 -8 2 -15 -7 -17 -20 -2 -12 -7 -20 -12 -17
-4 3 -14 -8 -22 -25 -7 -16 -16 -30 -20 -30 -5 0 -8 -6 -8 -13 0 -8 -9 -22
-20 -32 -11 -10 -18 -20 -16 -23 3 -2 1 -15 -4 -28 -8 -19 -6 -22 7 -17 12 5
15 2 10 -10 -4 -12 -2 -14 11 -10 9 4 20 11 24 17 5 8 8 7 8 -1 0 -6 8 -10 18
-8 9 1 25 -2 36 -7 13 -7 16 -7 12 1 -8 12 81 10 101 -2 6 -4 14 -3 17 2 4 5
18 8 31 5 16 -3 25 0 25 8 0 9 3 9 8 2 4 -5 21 -10 37 -9 17 1 35 -3 42 -7 6
-5 14 -5 17 1 4 5 18 8 31 5 16 -3 25 0 25 8 0 8 3 9 8 3 10 -15 93 -16 86 -1
-3 6 2 2 10 -8 10 -13 16 -15 16 -7 0 11 3 11 17 0 14 -11 15 -12 9 -1 -7 11
-1 13 27 9 19 -2 41 0 48 7 9 8 10 8 5 -2 -6 -10 2 -12 31 -8 21 2 46 -1 57
-6 12 -7 16 -7 12 0 -3 5 1 13 10 16 12 5 15 2 10 -10 -5 -13 -4 -14 7 -6 10
9 17 8 27 -1 10 -10 11 -9 5 1 -6 11 0 13 28 9 19 -2 41 0 48 7 9 8 10 8 5 -2
-6 -10 2 -12 31 -8 21 2 46 -1 57 -6 12 -7 16 -7 12 0 -3 5 1 13 10 16 12 5
15 2 10 -11 -6 -16 -5 -15 13 1 12 11 21 14 26 7 8 -13 45 -15 45 -2 0 5 9 12
19 16 12 3 18 12 15 20 -3 8 4 16 17 20 17 6 19 9 8 16 -8 5 -9 9 -3 9 6 0 17
14 24 30 7 17 16 30 20 30 4 0 15 16 24 35 10 20 20 34 24 31 4 -2 8 7 9 22 0
14 8 29 17 34 18 10 22 38 5 38 -5 0 -7 6 -3 13 4 6 4 9 -1 5 -4 -4 -16 -3
-26 3 -11 5 -19 6 -19 1 0 -5 -13 -8 -30 -8 -16 0 -30 4 -30 10 0 6 -4 5 -9
-2 -4 -8 -12 -14 -16 -14 -4 0 -12 6 -16 14 -6 8 -9 9 -9 1 0 -12 -17 -12 -37
0 -6 4 -14 4 -17 -1 -6 -10 -57 -9 -73 1 -7 5 -13 4 -13 -1 0 -10 -40 -10 -57
1 -6 4 -14 4 -17 -1 -6 -10 -57 -9 -73 1 -7 5 -13 4 -13 -1 0 -10 -40 -10 -57
1 -6 4 -14 4 -17 -1 -6 -10 -57 -9 -73 1 -7 5 -13 4 -13 -1 0 -12 -43 -10 -52
3 -5 6 -8 6 -8 -1 0 -6 -7 -11 -15 -11 -8 0 -15 7 -15 14 0 8 -5 11 -12 7 -7
-4 -8 -3 -4 4 4 7 14 12 21 12 8 0 12 6 9 14 -3 8 0 17 7 22 8 5 10 3 4 -6 -5
-9 -4 -11 4 -6 6 4 9 11 6 16 -3 5 -1 11 5 15 6 4 8 10 5 15 -3 5 4 12 16 15
17 6 18 9 8 16 -11 6 -10 9 4 15 9 3 17 12 17 20 0 8 5 14 12 14 6 0 8 3 5 7
-4 3 3 18 15 31 13 14 16 22 8 17 -8 -4 -5 2 7 14 12 11 27 21 33 21 6 0 8 6
4 13 -5 8 -2 8 9 -2 14 -11 17 -11 17 0 0 12 2 12 9 1 4 -8 12 -14 16 -14 4 0
12 6 16 14 7 10 9 10 9 0 0 -8 5 -10 13 -5 16 10 38 13 33 4 -3 -4 4 -7 14 -7
10 0 17 3 14 7 -5 9 17 6 34 -4 7 -5 12 -3 12 5 0 10 2 10 9 -1 7 -11 9 -11
14 0 4 11 6 11 6 1 1 -8 6 -10 14 -5 18 11 38 13 31 1 -8 -12 29 -6 38 7 5 6
8 5 8 -3 0 -8 5 -10 13 -5 18 11 38 13 31 2 -3 -5 5 -5 19 0 16 6 28 6 36 -2
8 -8 11 -7 11 4 0 12 2 12 10 -1 8 -12 10 -12 10 -1 0 11 3 11 15 1 12 -10 15
-10 15 1 0 9 3 10 8 4 9 -12 46 -20 39 -8 -7 10 34 10 51 -1 7 -4 12 -2 12 6
0 9 3 9 10 -2 8 -12 10 -12 10 -1 0 11 3 11 15 1 12 -10 15 -10 15 1 0 9 3 10
8 4 9 -13 46 -20 38 -7 -6 9 30 9 40 0 8 -8 44 23 44 38 0 7 3 14 8 16 15 6
52 61 46 69 -3 5 -1 9 4 9 6 0 20 19 32 42 12 23 28 47 35 53 7 5 15 19 17 30
2 11 11 19 19 17 11 -3 11 -1 2 9 -6 6 -9 18 -6 27 4 10 2 13 -5 8 -7 -4 -12
-3 -12 1 0 5 -57 8 -127 8 -71 -1 -136 3 -147 8 -10 5 -16 5 -13 0 7 -11 -454
-9 -472 2 -8 5 -12 4 -8 -1z"/>
</g>
</svg>
