<svg id="Layer_1" enable-background="new 0 0 75 75" height="512" viewBox="0 0 75 75" width="512" xmlns="http://www.w3.org/2000/svg"><g id="Paid_Promotion"><g><g><g><g><path d="m45.8285904 60.7046928.0063629-1.4901543c.011898-2.7852974 1.5654907-5.2091637 3.8417244-6.4590912 0 0 0 0 .0000763-.0177574.2511139-.5844116.3954697-1.2224426.3981972-1.8610802.0073929-1.7304153-.8908386-2.367424-.9818573-2.647583-.0347557-.1776199.1076317-.3543816.2855148-.4245453.1600494-.0525894.3548775-.0340004.5323067.0022736 1.1342239.2354851 2.1964874.7899895 3.0268364 1.5917931 1.098587 1.0579033 1.1981277 1.8249016 1.5150757 2.4369736l5.8367424.0249329c4.0981941.0175018 7.4017372 3.3492737 7.3842278 7.447361l-.0063629 1.4901543c-.0175781 4.1158409-3.3494568 7.4191628-7.4476509 7.4016609l-7.007473-.0299301c-4.0981942-.0175019-7.4012986-3.3491669-7.3837205-7.4650079z" fill="#f56357"/></g></g><g><path d="m57.0079155 58.5973778h-4.8671875c-.2763672 0-.5-.2236328-.5-.5s.2236328-.5.5-.5h4.8671875c.2763672 0 .5.2236328.5.5s-.2236328.5-.5.5z" fill="#e11a17"/></g><g><path d="m60.5538139 61.9743309h-8.4130859c-.2763672 0-.5-.2236328-.5-.5s.2236328-.5.5-.5h8.4130859c.2763672 0 .5.2236328.5.5s-.2236328.5-.5.5z" fill="#e11a17"/></g></g><g><path d="m22.3620186 59.1112785c.1963577.0784225.4080486.1752205.4988346.3661766.0761051.16008.0464783.3543282-.0346298.5119324-.1164188.2262192-.1718082.2496719-2.0816612 2.173912-1.0007019-.4104424-1.8030415-1.1809349-2.5793648-1.9340515-.1502094-.1457214-.3080463-.3051491-.3466454-.5108376-.0885563-.4719009.4082127-.7654686.7201672-1.0080185.2538776-.1973953.4904652-.4362679.8263226-.4674683.5670718-.052677 2.5617675.6945383 2.9969768.8683549z" fill="#9a99e1"/></g><g><g><g><path d="m24.8119755 66.5209732c-.6190128.7870941-1.2969379 1.5319672-2.0371189 2.2142487-1.8357468 1.7118607-2.789547 1.1383133-4.3227463-.8292236-1.1113358-1.4482651-1.9483452-2.3163223-3.052989-4.0501823-.8673735-1.2794762-1.7204208-2.8093834-2.4073048-4.2287178-.2697392-.5687866-.6359539-1.0282364-.6290016-1.6838951.0166922-1.8623734 2.986268-4.1566887 4.5506067-2.4702644.863821.9423904.4080696 2.4218369 3.3598728 4.7790833 1.8326054 1.333683 1.7943573 1.2169991 3.7301216 2.4119797 1.789238 1.1301649 2.1569691 2.1636579.8085595 3.8569715z" fill="#6f6ecf"/></g><g><path d="m20.2732944 60.2520218c-1.5039234 1.3476868-3.1438751 2.5618057-4.8741732 3.6037941-.7670393-1.1314697-1.589016-2.5751686-2.0099497-3.4523087 1.0019073-1.5849266 2.7094784-3.1814423 4.0007839-4.1152.0887756.2244453.1674137.450489.2561798.6748734.5271512 1.3161964 1.5152856 2.4009208 2.6271592 3.2888412z" fill="#3f3e8a"/></g><g><path d="m46.5228882 49.3911247c-.7819328.5421867-1.7902184.6973953-2.9174576.5059814-3.3252373-.5483589-7.7921448-4.0348816-11.331768-9.2225227-4.4009571-6.4477234-5.8501301-13.2357388-3.5434856-15.8917446.175354-.2239609.385601-.4101982.6137848-.563715 3.1177387-2.1351089 9.5068722 1.7744293 14.2494907 8.7163925 4.7377166 6.9589501 6.0580673 14.3144417 2.9294357 16.4556084z" fill="#f6f3fe"/></g><g><path d="m46.524128 49.3948555c-.401825.2736397-.8609886.4527473-1.3668633.5356445.780941-3.2862549-.8473701-8.7854042-4.4347458-14.0674591-4.1281738-6.0453587-9.5116119-9.7967262-12.8909416-9.2429695.2933922-1.1950474.8763618-1.9725895 1.5083923-2.3977394 3.1190376-2.1422081 9.5147438 1.7654076 14.2575569 8.7073669 4.7357522 6.963913 6.0555192 14.3213273 2.9266015 16.4651566z" fill="#dcd9ea"/></g><g><path d="m40.3467674 49.4201279c-1.4535713.8575783-13.2591114 2.706749-21.7774258 9.5008049-2.4864864 2.0073547-5.1461067 5.0508652-8.6963568 4.1157875-3.0090008-.7749596-4.8221378-4.2929306-4.1703019-7.3162994.7095051-3.1690216 16.8007622-14.4069633 19.9654064-29.3692169 4.3385677 14.8637619 7.0116024 16.0819931 14.6663532 21.4087029.5662914.4068297.7532192 1.2881545.0123249 1.660221z" fill="#dcd9ea"/></g><g><path d="m39.2614136 39.4997406c-1.2355118 1.5702438-2.530323 2.9766655-3.9626579 4.3478851-.6559067.6269379-.930397.5368538-1.4005966-.0510178-1.1347466-1.448452-2.7564754-2.7333527-4.3639851-6.0897865-.1760616-.3763428-.5006485-.6452141-.3865738-1.0898361.1008663-.4633179.5804005-.7704277.9702549-.9901733 1.599535-.9137955 3.1513329-1.5136414 5.0591469-2.2211342 2.033947-.8148994 2.8033447-.3970604 4.0821724 1.263443 1.4151039 1.8969192 1.5743331 2.8223381.0022392 4.8306198z" fill="#f8c73b"/></g><g><path d="m20.7328148 57.3508339c-.104763.0587654-.1789074.1124496-.2718945.1796188-.6449928.4381523-1.2850075.9066887-1.8915787 1.39048-2.1228504 1.7137909-6.9610691 7.1641502-11.3734255 2.4247017-.0016599-.010128-.0134463-.0185966-.0150962-.0286598-1.2253695-1.3499718-1.9134712-3.5773697-1.478137-5.5965538.3674598-1.6412697 1.2769618-1.8531265 7.2619042-8.3065262 1.4942208 4.1431122 4.3850146 7.6682816 7.7682277 9.9369393z" fill="#f56357"/></g><g><path d="m34.0795708 43.1917458c-3.4992027-3.5000954-4.2917194-5.9133835-6.3404713-10.1412239-1.0081482-2.0457954-1.4354267-4.5093422-2.070116-6.7031422-.411478 1.9436779-1.0254593 3.8279591-1.8095779 5.6351776.3918304 2.4534779 1.4474506 5.7075329 3.0734119 8.7028141 1.0126057 1.8653793 1.5870304 1.249855.7521935 5.2491074-.488369 2.3395042-1.5217381 4.6049232-3.1444473 6.3770027-2.0707417 2.2613564-4.9901142 3.5293274-7.8401413 4.6508713-3.3576736 1.3189926-6.8989391 2.5330086-10.4479876 2.9379768.7239981 1.5020676 1.9935093 2.71735 3.6205502 3.1363907 3.5502501.9350777 6.2098703-2.1084328 8.6963568-4.1157875.6065712-.4837914 1.2465858-.9523277 1.8915787-1.39048.0929871-.0671692.1671314-.1208534.2718945-.1796188 7.9139118-5.3572502 18.3067589-7.2084236 19.6171303-7.9267883-2.0603716-2.3086206-3.7722628-3.2877351-6.2703745-6.2322999z" fill="#c6bfe0"/></g><g><path d="m37.9945984 41.0267105c-.8470764.9803238-1.7530746 1.9183731-2.6958427 2.8209152-.6559067.6269379-.930397.5368538-1.4005966-.0510178-1.1347466-1.448452-2.7564754-2.7333527-4.3639851-6.0897865-.1760616-.3763428-.5006485-.6452141-.3865738-1.0898361.1008663-.4633179.5804005-.7704277.9702549-.9901733.4845028-.2767906.9824505-.5349846 1.4837055-.7729874 1.5607052 2.7147751 3.4649639 5.1369858 6.3930378 6.1728859z" fill="#fab041"/></g><g><path d="m48.3659363 37.932991s0 0-.0114441 0c-1.7887001-4.0359116-4.8011742-8.1218147-7.740387-10.9188156-4.9733315-4.779192-10.2327747-6.6313858-13.4456081-4.3103867-2.149332 1.5663605-2.8697777 4.6075954-2.0237217 8.5635529.7433338 3.4414444 2.5953884 7.3401756 5.2251091 10.9531479 5.670887 7.8089828 12.8396072 11.7077179 17.0355492 9.4096069 2.094162-1.1071701 2.8926659-3.4717102 2.8926659-5.8995667-.0000001-2.2752189-.6629411-4.9620933-1.9321633-7.7975387zm-2.6182785 10.3357048c-1.6577759 1.2233772-7.3515511-1.360569-12.348053-8.2433853-2.3321629-3.2013893-3.9673309-6.5970535-4.59622-9.5354271-.4915543-2.3209991-.2858334-4.1503048.5605011-4.7562351.3067417-.2300568.7156258-.2972775 1.0975552-.2972775 2.4008331 0 7.0657196 2.7554016 11.2616615 8.5406647 4.9965019 6.8714409 5.7281112 13.0568428 4.0245552 14.2916603z" fill="#6f6ecf"/></g><g><path d="m20.7328148 57.3508339c-.104763.0587654-.1789074.1124496-.2718945.1796188-.6449928.4381523-1.2850075.9066887-1.8915787 1.39048-2.4864864 2.0073547-5.1461067 5.0508652-8.6963568 4.1157875-.9371815-.2589684-1.7624607-.7086792-2.6770687-1.6910858-.0016599-.010128-.0134463-.0185966-.0150962-.0286598-.2786584-.3069954-.6706376-.8813782-.9283853-1.4166451 3.5490484-.4049683 7.0903139-1.6189842 10.4479876-2.9379768.7610035-.3013649 1.5321426-.6043243 2.2865162-.9461365.3676072.3313905 1.0489999.8673211 1.7458764 1.3346177z" fill="#f34036"/></g><g opacity=".46"><path d="m20.8095188 44.4158707c.4486771-.5493851 1.1966667-.8710403 1.8895588-.7192764 1.1788502.2582092 2.1364651 1.841507 2.0216446 3.0979004-.1462231 1.6000214-2.0534725 2.5620232-3.4473495 1.7297554-1.2809163-.7648202-1.3282109-3.0500146-.4638539-4.1083794z" fill="#fff"/></g><g opacity=".46"><path d="m17.2352238 45.4571877c.2632904-.3223839.7022209-.5111351 1.1088181-.4220772.6917667.1515198 1.2537079 1.0806198 1.1863308 1.8178902-.0858059.9389153-1.2050076 1.5034294-2.022953 1.0150452-.7516595-.4488069-.7794133-1.7897912-.2721959-2.4108582z" fill="#fff"/></g></g><g><path d="m48.3544922 37.932991c-4.0703354-2.1838036-6.985611-6.2082882-7.740387-10.9188156 2.9421044 2.7997513 5.9506264 6.8805199 7.740387 10.9188156z" fill="#3f3e8a"/></g><g><path d="m57.2930717 8.8224745c-.2675781-.0649414-.4326172-.3349609-.3681641-.6035156l.6123047-2.5278325c.0654297-.2675781.3320313-.434082.6044922-.3681641.2675781.0649414.4326172.3349609.3681641.6035156l-.6123047 2.5278325c-.0659866.2714796-.3397369.4327383-.6044922.3681641z" fill="#6f6ecf"/></g><g><path d="m52.8868217 8.1232557-.5703125-2.2495122c-.0683594-.2675781.09375-.5395508.3613281-.6079102.2714844-.0683594.5400391.0942383.6074219.3618164l.5703125 2.2504883c.0683594.2680669-.09375.5395513-.3623047.6074224-.2696723.0674181-.5401039-.0969429-.6064453-.3623047z" fill="#6f6ecf"/></g><g><path d="m60.3311577 9.1657362c-.2060547-.1835938-.2236328-.4995117-.0400391-.7055664l1.1191406-1.2558599c.1835938-.2055664.4980469-.2250977.7060547-.0405273.2060547.1835938.2236328.4995117.0400391.7055664l-1.1191406 1.2558599c-.1839218.206686-.4991303.2242231-.7060547.0405273z" fill="#6f6ecf"/></g><g><g><ellipse cx="55.366" cy="24.563" fill="#fde77a" rx="14.234" ry="14.063" transform="matrix(.053 -.999 .999 .053 27.876 78.535)"/></g><g><ellipse cx="55.366" cy="24.563" fill="#f8c73b" rx="10.705" ry="10.577" transform="matrix(.053 -.999 .999 .053 27.876 78.535)"/></g><g><path d="m63.5390244 17.7579632c-6.5937462-5.3713074-16.7212677-1.0470448-17.1958847 7.7755928-.1465988 2.7845478.7653999 5.3736954 2.3856506 7.368494-2.5565987-2.0843487-4.1198959-5.3411465-3.9244957-8.9073429.3175468-5.9029446 5.3004417-10.4380398 11.1301384-10.1204901 3.0857467.1628504 5.7889442 1.6528483 7.6045914 3.8837462z" fill="#ef9f27"/></g><g><path d="m55.3529053 29.3778934c-1.299221 0-2.7646217-.5184155-3.4754562-1.7906017-.1645889-.2949886-.0596313-.6671028.2345581-.8308964.2965813-.1677704.6671028-.0580444.8308983.2345581.5390892.9636822 1.8907852 1.2960415 2.9490852 1.1242962.8149948-.1319904 1.759594-.6233711 1.903511-1.2761631.1264229-.5724831-.2997589-1.1720009-.7847824-1.4216671-1.166832-.6009998-2.7077141-.4147148-4.1107483-1.0590954-1.4253807-.6551991-1.5353889-2.3280849-.4715042-3.44524.8293037-.8714466 2.2048569-1.2849083 3.5072556-1.0535278 1.2324333.2202473 2.351162 1.0598888 2.9196701 2.1913395.1518669.3013496.0302124.6686935-.2711372.8197651-.3029366.1518669-.6686935.0302143-.8197632-.2711334-.3991508-.7951164-1.1823387-1.383503-2.0434494-1.537756-2.1113625-.3840542-3.6000366 1.5954533-2.3114052 2.1865692 1.2099113.5566654 2.7290764.3471909 4.1600494 1.0829487.9056396.4667339 1.6840591 1.5679703 1.4184875 2.7701855-.3179245 1.4457779-2.1066932 2.2764186-3.6352691 2.2764186z" fill="#fde77a"/></g><g><path d="m55.4006119 31.2360802c-.3307686 0-.6026993-.2639771-.6106491-.5963364-.0914383-4.0089779-.0962105-8.0799732-.01511-12.1024666.0071564-.3323593.2790871-.5979271.6106491-.5979271h.012722c.3371315.0071545.60429.2854462.5979271.6233711-.0811005 4.0042057-.0763283 8.0577087.01511 12.048399.0071564.337923-.2592087.6170101-.5963402.6249599-.0047684.0000001-.0095406.0000001-.0143089.0000001z" fill="#fde77a"/></g></g></g><g><g><path d="m5.7857265 58.1753311c-.2109375-.1787109-.2363281-.4941406-.0585938-.7050781.5712892-.6728516 1.2138673-1.2871094 1.9111329-1.8251953.2158203-.1689453.5322266-.1289063.7011719.0898438s.1289063.5332031-.0898438.7011719c-.6425781.4960938-1.234375 1.0605469-1.7587891 1.6806641-.1806731.2125586-.4959516.2350463-.7050781.0585936z" fill="#e11a17"/></g></g><g><g><path d="m6.8218594 60.8169327c-.2109375-.1787109-.2363281-.4941406-.0585938-.7050781.5693359-.6708984 1.2119141-1.2851563 1.9111328-1.8242188.2167969-.1689453.5332031-.1289063.7011719.0898438.1689453.21875.1289063.5332031-.0898438.7011719-.6435547.4970703-1.2353516 1.0615234-1.7587891 1.6796875-.180673.2125587-.4959516.2350463-.705078.0585937z" fill="#e11a17"/></g></g><g><g><path d="m9.3365078 62.7817764c-.2109375-.1787109-.2363281-.4941406-.0576172-.7041016.5703125-.671875 1.2128906-1.2861328 1.9111328-1.8242188.2167969-.1679688.5322266-.1289063.7011719.0898438s.1289063.5332031-.0898438.7011719c-.6425781.4960938-1.2353516 1.0615234-1.7607422 1.6796875-.1783275.211876-.4952344.2360268-.7041015.0576172z" fill="#e11a17"/></g></g></g></g></svg>