<svg id="Layer_1" enable-background="new 0 0 36 36" height="512" viewBox="0 0 36 36" width="512" xmlns="http://www.w3.org/2000/svg"><g id="_x38_7"><g><g><g><g><path d="m27.342495 23.0457039c0 1.0406837-.1521091 1.9919014-.8264217 4.2817287-1.3876801 4.7122746-2.512907 1.7949333-5.6640129 4.5072784-1.8596668 1.6007252-2.9317551 2.0873432-3.7687244 2.1605778-.9291649.0813026-1.69312-.9119606-2.2183809-1.2775993-.8688087-.6047897-3.6929255-2.0716877-3.6929255-2.0716877-.2830734-.1734104-.5021753-.4290676-.6298933-.7304173-.7429075-1.6893349-1.9620733-4.3130703-1.8807621-5.3681297.0821362-.9769363.6938629-2.2094173 2.3462725-3.0219688 1.2050657-.602478 1.7894878-1.168623 2.0633106-1.53372l10.143034-.347044c1.2225895.8150597 2.5992088 1.5641346 3.332346 1.9720383.4360407.247713.7961577.7487907.7961577 1.4289436z" fill="#e3e7f0"/></g></g><g><g><path d="m26.8110218 22.757967v.0365543c.0682373.6622925-.1889935 1.5179443-.9219933 4.400444-.6025887 2.4741001-1.0956249 2.0267563-2.3189678 1.9720364-1.232481-.0547199-2.2549992.3560696-3.5605888 1.2142048-2.0450325 1.3420315-2.4192677 2.9306946-3.1771011 2.9397202h-.0091381c-.5386181.01828-.7851372-.365097-1.00424-.5385056-2.5390263-2.0151844-2.7816782-1.8305721-4.400445-2.5197945-.2099638-.1279392-.3652086-.3104877-.465621-.5295906-.4471712-1.0270519-1.4495697-3.4039707-1.7073526-4.2087574-.1796389-.5758114-.1268864-.6869011-.1368551-.7942753.0182762-.8764114.5660334-2.0358963 2.099865-2.7937279 1.1229296-.5659237 1.761961-1.1137905 2.1088924-1.5245819l9.7687969-.3013496c.9053001.6196308 2.042881 1.2599297 3.0035801 1.7803497.5112038.2738228.6482811.4929256.6938629.7394447.009138.0274144.018278.0822469.0273055.1278287z" fill="#656fea"/></g></g><g opacity=".15"><g><g><path d="m26.8110218 22.757967c-.2372684-.0821362-.5112038-.1552448-.7850266-.1825485-.5752831-.0547199-1.6890755.0273037-3.743248.7577209-3.3322334 1.1777611-5.2951317 3.624445-5.9159985 5.1035576-.6606541 1.5520306.1807289 3.7352085.4564838 4.8842297-.5386181.01828-.7851372-.365097-1.00424-.5385056-.2646847-.2100754-.5020647-.3926239-.7120285-.5478668-.3835974-1.406004-.3744583-2.5472107-1.0774603-3.2957935-.593338-.639143-1.990202-1.3785877-4.4460258-2.5106544-.1461058-.3652096-.2647953-.6755867-.337904-.9038277-.1796389-.5758114-.1268864-.6869011-.1368551-.7942753.2008247.0731087.3833733.1551323.4564819.1916866 1.7802382.8125534 3.1222706 1.4881382 4.0809288 2.0267563.7578335.4200401 1.7072411.237381 2.2275829-.4564819 1.1503448-1.5428581 3.1042156-3.4418983 5.9525528-4.455164 1.1960373-.4200401 2.2276936-.6938629 3.0950775-.7943878.3468208.2009373.7303047.410902 1.1685104.6482811.5112038.2738228.6482811.4929256.6938629.7394447.0091383.0274143.0182783.0822468.0273058.1278286z" fill="#fff"/></g></g></g><g><g><path d="m21.7519112 17.7276287c-.7941647.4837875-2.1361961.8033028-3.6518612.8033028-1.5154438 0-2.8483372-.3195152-3.642724-.8124409-.4837866-.2922115-.7576094-.6482811-.7576094-1.040905 0-.1459942.0364428-.2921009.118578-.4290676.4564829-.8215799 2.2094173-1.4333067 4.2817554-1.4333067 2.0907269 0 3.8345203.6117268 4.2910042 1.4333067.342926.5718536-.0759068 1.1216011-.639143 1.4791107z" fill="#e3e7f0"/></g></g><g><g><path d="m21.6973305 16.6055374c0 .6387272-1.1335869 1.1694984-2.6719799 1.3224812-.5570602.0522652-.8793182.0423908-.9807148.0450268-1.9612083-.0090046-3.5356236-.6208248-3.5356236-1.3675079 0-.5487823.8546381-1.0166273 2.0871754-1.2325382.2429276-.0450268.5037556-.0720434.7736988-.0989494.233923-.0180111.4858551-.0270166.7377872-.0270166 1.988226-.0000002 3.5896569.6028154 3.5896569 1.3585041z" fill="#5564d7"/></g></g><g><g><path d="m23.2322674 19.5078678c0 1.406002-2.3006897 2.5289326-5.1308613 2.5289326s-5.1217232-1.1229305-5.1217232-2.5289326c0-.5248928.3557692-1.2348881.6128483-1.1834221.0456934 0-.0742292.1790695-.0195093.233902.1096621.1369667.2465181.2739334.4109011.3925133 1.7620726 1.333004 6.144352 1.406002 8.2166901-.0273056.164381-.1186886.308012-.2399502.4359512-.3677788.0547218-.0548325.0385666-.2339001.0842609-.2339001.3025913-.0605774.5114422.7273751.5114422 1.1859913z" fill="#e3e7f0"/></g></g><g><g><path d="m22.720953 18.4032154v.0091381c-.0273037.0547199-.0547199.1003017-.0820236.1459942-.1279392.1278286-.2739353.2465191-.4383163.3652077-2.0723381 1.4333076-6.4546175 1.3603096-8.2166901.0273056-.1925611-.1389065-.3864641-.3251514-.4929256-.5385075-.173521-.3744583.0724487-1.0204372.2099638-.6118393 1.7162685 1.6525211 6.4637556 1.9447327 8.810029 0 .0834255-.4847069.3834838.2282429.2099628.6027012z" fill="#b0b8cf"/></g></g><g><g><path d="m22.5109901 17.8005142c-2.3462734 1.9447327-7.0937605 1.6525211-8.810029 0-.575284-.7667484.1185789-1.5519962.1185789-1.5519962-.0820246.1369667-.1185789.2830734-.1185789.4290676 0 .3926239.2738228.7486935.7577219 1.040905.7942753.4929256 2.1271687.8124409 3.6427231.8124409s2.8575859-.3195152 3.6518612-.8033028c.5638046-.3578701.9786663-.9100628.6364498-1.4815102 0 0 .6965561.7876473.121273 1.5543957z" fill="#c9cee2"/></g></g><g><g><path d="m20.9382534 17.448925c-1.4358177-.6981907-4.2501965-.6939278-5.6682634-.0043678-.4838982-.2282429-.7669716-.5295925-.7669716-.8399696 0-.7485819 1.6251059-1.3603096 3.5970316-1.3603096 3.0031814 0 4.6850223 1.3335533 2.8382034 2.204647z" fill="#656fea"/></g></g><g><g><path d="m21.7085915 16.6046906c.0093689.1873512-.068306.3741093-.3346825.5826492-1.2631779-1.0594864-5.2792492-1.0656052-6.5382147-.0094433-.213315-.172121-.3326759-.3723717-.3326759-.5733089 0-.7485819 1.6423388-1.3775415 3.6142626-1.3775415 1.9904251-.0000001 3.5913105.6290616 3.5913105 1.3776445z" fill="#c9cee2"/></g></g><g><g><path d="m22.5097446 19.5625877c0 .9677963-1.9719257 1.7346554-4.4096947 1.7346554-2.4192696 0-4.4003334-.7668591-4.4003334-1.7346554 0-.2191029.1008129-.4204578.283473-.612257 1.7620716 1.3330059 6.1442499 1.407032 8.2167006-.0262756.2008248.1916866.3098545.4102917.3098545.6385326z" fill="#656fea"/></g></g></g><g><g><g><path d="m17.0408287 7.8190689c.3997288.7798271 1.4163303 2.8795033 2.1336555 5.0277624.3157158.9564342.2598362 2.0012913-.1933498 2.8371859-.2593384.4902401-.6607399.9064789-1.1947594 1.2000217-1.0075188.5331535-2.3000097.2070293-3.0538769-.429287-1.2451544-1.0395727-2.9476719-3.8994408-3.6495838-5.3607121-.9712772-2.0304174-3.0015135-8.1219187-.1545563-8.9914751 2.7851859-.8501027 5.1430741 3.8081399 6.1124707 5.7165042z" fill="#bf7d5a"/></g></g><g opacity=".4"><g><path d="m9.7577991 3.1790037c-.9064255 2.0697298.5455894 6.2903843 1.3225574 7.9145708.7019119 1.4612722 2.4044294 4.3211393 3.6495829 5.3607121.7356386.6209297 2.0294828.9713707 3.0538778.429287.5340195-.2935429.935421-.7097816 1.1947594-1.2000217.453186-.8358936.5090637-1.8807516.1933498-2.8371859-.5046558-1.5113401-1.1529369-2.9891262-1.6348133-4.009675-4.3728494 2.6377667-8.5176972-1.722529-7.779314-5.6576873z" fill="#aa6256"/></g></g><g><g><path d="m9.4839849 4.4134326c-.1538486 2.2101188.9554014 5.3353543 1.5989294 6.6806073.7019119 1.4612713 2.4044294 4.3211393 3.6495838 5.3607121.7356377.6209297 2.0294819.9713707 3.0538769.429287.5340195-.2935429.935421-.7097816 1.1947594-1.2000217.453186-.8358946.5090656-1.8807516.1933498-2.8371859-.167038-.500185-.3490009-.9951334-.536377-1.4725552-4.9302978 1.852211-9.1484202-2.5845728-9.1541223-6.9608436z" fill="#aa6256"/></g></g><g><g><path d="m19.0253506 17.9280186c-.5570602.0522652-.8793182.0423908-.9807148.0450268-.9175358-1.9750891-3.6995001-5.7098207-6.0817471-12.7663107-.0090055-.0180106.0180101-.0270162.0270157-.0090055 2.6923914 6.7390393 6.0571213 10.7742375 7.0354462 12.7302894z" fill="#1d2943"/></g></g></g><g opacity=".9"><g><path d="m13.860199 5.4593244c.7399817.9332466 1.1309319 1.7980728 1.5142174 1.5245171.3792467-.2706733.0984592-1.263526-.6415234-2.1967721-.7399578-.9332156-1.6277132-1.3046181-2.0069599-1.0339446-.3832855.2735557.3943071.7729839 1.1342659 1.7061996z" fill="#fff"/></g></g><g opacity=".9"><g><path d="m11.4838581 2.6358106c-.1246948.2134237.0156555.526674.3068972.7010233.2912416.1743495.6253414.1451249.7500362-.0682988.1221333-.2090378-.0135002-.5194998-.3047419-.6938493-.2912416-.1743493-.6300582-.147913-.7521915.0611248z" fill="#fff"/></g></g></g><g><g><path d="m24.0136223 23.7668648c-.125-.0076694-.1649609-.157814-.0661106-.2477722.5206013-.4737682.9543705-.884491.9266052-.9174938-.0252399-.0300217-.4995804.3298779-1.0504513.7648258-.1047153.0826817-.2450848.0181065-.2319508-.1068859.1373959-1.3077278.2465992-2.5557175.163393-2.5531025-.0797539.0025063-.3150482 1.2499886-.535183 2.5491772-.0210342.1241417-.1756344.1822796-.2545376.0969219-.4044685-.4375572-.7467499-.7894459-.7802219-.7582836-.030386.0282745.258131.4266109.6197529.9009647.0701027.0919571-.0079975.2359428-.1283741.2371998-1.1929512.0124664-2.2383728.0425758-2.2443104.1157951-.0056915.0701847 1.0263596.1628265 2.2015972.2442474.1185341.008213.1591682.1531315.0674229.2376919-.4613571.4252167-.8239269.7732086-.8010674.8003044.0251274.0298004.4286823-.2709389.9205933-.657341.0981464-.077095.2338715-.0129833.2223587.105835-.1139584 1.176178-.1931896 2.2112236-.123436 2.2170753.0727596.0061016.2750816-1.0249023.4843845-2.2038021.0211372-.1190491.1754627-.1726284.2540665-.087944.4053383.4366875.7476826.7898712.7804222.764452.0360279-.027956-.2513123-.4260387-.6153393-.896637-.0712337-.0920887.011282-.2360744.1368084-.2364197 1.3072815-.0036087 2.572134-.0304871 2.5878506-.1089134.0164052-.0818615-1.2316111-.1799831-2.534273-.2598953z" fill="#fff"/></g></g><g opacity=".9"><g><path d="m11.0272427 23.4581757c-.6052456.5881805-.9589758 1.1601753-1.2033167.9329243-.2417669-.2248592.0462503-.8968849.651495-1.4850655.6052265-.5881615 1.2629805-.7680283 1.5047464-.5431709.2443409.227251-.3476992.5071506-.9529247 1.0953121z" fill="#fff"/></g></g><g opacity=".9"><g><path d="m12.8516874 21.7360954c.05933.1405373-.051487.3210754-.2435942.4045982-.1921082.0835247-.3942461.0390511-.4535761-.1014862-.0581112-.1376495.0495968-.3168564.2417049-.4003792.1921073-.0835227.3973552-.0403823.4554654.0972672z" fill="#fff"/></g></g></g></svg>