<svg id="Layer_1" enable-background="new 0 0 51 51" height="512" viewBox="0 0 51 51" width="512" xmlns="http://www.w3.org/2000/svg"><g><g><path d="m37.43612 22.36875-.08002 20.27001c0 1.75-1.15997 3.5-3.45996 4.83997-4.63 2.69-12.16003 2.70001-16.83002.01001-2.34003-1.35999-3.51001-3.13-3.5-4.90997l.08002-20.27002c.01001-1.62 1.01001-3.25 2.98999-4.53998l-1.73999-11.25c-.01001-.03003-.01001-.07001-.01001-.10004l.66998-3.19.35999-1.72998.87006 1.53998 1.54999 2.73004.01001.01001v.00995l.04999.09003h-.02002c.02002.03003.02002.07001.03003.09998l1.56995 10.26001c.94-.28998 1.93005-.48999 2.94-.62v-4.64001c0-.03998 0-.07996.02002-.10999h-.02997l1.31995-3.48999.71002-1.89001.72003 1.89001 1.32996 3.48999h-.02997c.01996.04004.01996.08002.01996.12v4.52002c.70001.04999 1.40002.14001 2.09003.26001l.96002-12.54004h.01001l.64996-.31 5.47998 3.73004-.89996 11.75c1.56 1.28998 2.27997 2.81 2.14001 4.31.00994-.10999.02996-.23005.02996-.34003z" fill="#9b59b6"/></g><g><g><g><path d="m33.92895 17.46758c4.66061 2.69081 4.67879 7.05142.04846 9.74228-4.63031 2.69084-12.16484 2.69825-16.82545.00745-4.66062-2.69081-4.67883-7.0588-.04852-9.74964 4.63033-2.69086 12.16489-2.6909 16.82551-.00009z" fill="#9b59b6"/></g></g><g><g><path d="m35.93993 23.72124c-.30004.75998-.85 1.48993-1.64996 2.15989-.34996.28002-.73996.55998-1.18995.81997-.72995.41997-1.53992.76999-2.39987 1.03994-2.73994.87997-5.99976 1.00997-8.88966.37004-1.37995-.29003-2.66994-.75998-3.77988-1.39997-.01001-.01001-.01996-.01001-.02997-.02002-1.47998-.84994-2.42989-1.90989-2.85993-3.00989-.63993-1.65991-.08996-3.43987 1.64996-4.87975.34996-.29003.74997-.56998 1.18995-.82998.65-.37999 1.35993-.69998 2.11991-.94997h.01001c3.78983-1.29994 8.66964-1.11995 12.15949.53001.27001.13995.53001.26995.77999.41997.92996.53996 1.65991 1.14992 2.1699 1.79992.98996 1.24994 1.21999 2.62989.72001 3.94984z" fill="#7d5193"/></g></g><g><g><g><path d="m18.40005 5.87773-3.51795.54479.67115-3.19162.36049-1.72829.87378 1.53715z" fill="#f1c40f"/></g><g><path d="m21.81049 28.11108c-1.37995-.29003-2.66994-.75998-3.77988-1.39997-.01001-.01001-.01996-.01001-.02997-.02002l-1.20997-7.88964-1.88994-12.27953c-.01001-.03003-.01001-.07-.01001-.09997 0-.06.01001-.11004.03003-.17004.04999-.17999.17999-.36998.37999-.52995.62998-.49998 1.72991-.66996 2.47988-.37999.28002.09997.47001.26.56998.43998v.01001c.01001.02997.03003.06.03003.08996.01996.03003.01996.07.02997.10003l1.68993 11.03954h.01001z" fill="#3d566e"/></g><g><path d="m16.78752 3.03976c-.37913.14199-.82141.21801-1.23427.19114l.36049-1.72829z" fill="#3d566e"/></g></g></g><g><g><path d="m26.98659 10.87041h-4.07594l1.31866-3.49367.71074-1.89237.7193 1.89237z" fill="#f1c40f"/></g><g><path d="m26.98027 10.99171-.01001 7.94969-.01001 9.50963c-1.35993.10998-2.73988.07-4.06984-.14001l.02002-9.23962.01001-8.08964c0-.04004 0-.08001.02002-.11004.02997-.25994.22997-.51994.56998-.71994.78995-.46 2.07987-.46 2.86988 0 .34996.2.53996.46.57993.71994.02002.04004.02002.08001.02002.11999z" fill="#2ecc71"/></g><g><path d="m25.65935 7.37674c-.45386.09423-.96761.10275-1.43004 0l.71074-1.89236z" fill="#2ecc71"/></g></g><g><g><path d="m37.43731 22.36905-.08089 20.26898c-.00497 1.75273-1.15802 3.5031-3.4599 4.84081-4.63031 2.69084-12.16484 2.69825-16.82545.00745-2.3437-1.35313-3.51342-3.1304-3.50839-4.90522l.08087-20.26897c-.00502 1.77482 1.1647 3.55208 3.5084 4.90522 4.66061 2.6908 12.19514 2.68339 16.82545-.00745 2.30189-1.33772 3.45494-3.08809 3.45991-4.84082z" fill="#7d5193"/></g></g><g><g><g enable-background="new"><g><g><path d="m36.1699 6.64191-1.18996 15.55938-.26 3.2799c-.2.20995-.41997.39995-.66996.57993l.33995-4.42982 1.12997-14.6694z" fill="#d4d6d6"/></g></g><g><g><path d="m35.5199 6.9619-1.12996 14.6694-.33995 4.42982c-.28997.23003-.59995.43998-.94997.63999-.83993.48997-1.7799.87997-2.78987 1.16994-.15002.04004-.29998.08001-.44999.11004-.37999.09997-.75998.18999-1.14998.24999-.01996.00995-.03998.00995-.04999.00995-.18999.04004-.36998.07-.55997.09002l.69998-9.13965 1.22993-15.95932z" fill="#d4d6d6"/></g></g><g><g><path d="m36.16753 6.64667-.65023.31621-5.4861-3.73224.65022-.31621z" fill="#ecf0f1"/></g></g></g></g><g><g><g><path d="m28.71018 28.23107c-.01996.00995-.03998.00995-.04999.00995v-.03998z" fill="#31323d"/></g></g><g><g><path d="m30.31015 27.87104c-.15002.04004-.29998.08001-.44999.11004l-1.11995-.75998.02997-.40001z" fill="#31323d"/></g></g><g><g><path d="m30.83773 25.31248-.0312.40641-1.85659-1.26306.0312-.4064z" fill="#31323d"/></g></g><g><g><path d="m30.73128 26.69901-.03083.40162-1.85659-1.26305.03083-.40162z" fill="#31323d"/></g></g><g><g><path d="m32.0159 24.65507-.0312.4064-2.92831-1.99215.0312-.4064z" fill="#31323d"/></g></g><g><g><path d="m31.05026 22.54423-.03083.40162-1.85659-1.26306.03083-.40162z" fill="#31323d"/></g></g><g><g><path d="m32.00756 10.07512-.03083.40162-1.85659-1.26305.03083-.40162z" fill="#31323d"/></g></g><g><g><path d="m32.97283 12.19073-.03083.40162-2.92831-1.99215.03083-.40162z" fill="#31323d"/></g></g><g><g><path d="m31.79503 12.84338-.0312.4064-1.85659-1.26305.0312-.4064z" fill="#31323d"/></g></g><g><g><path d="m31.68858 14.22989-.0312.4064-1.85659-1.26305.0312-.4064z" fill="#31323d"/></g></g><g><g><path d="m32.65385 16.34552-.03083.40162-2.92831-1.99216.03083-.40161z" fill="#31323d"/></g></g><g><g><path d="m31.47569 17.00293-.03084.40162-1.85659-1.26305.03084-.40162z" fill="#31323d"/></g></g><g><g><path d="m31.36961 18.38468-.03121.4064-1.85659-1.26306.0312-.4064z" fill="#31323d"/></g></g><g><g><path d="m32.33488 20.50029-.0312.4064-2.92831-1.99215.0312-.40641z" fill="#31323d"/></g></g><g><g><path d="m31.15671 21.15771-.03084.40162-1.85659-1.26305.03084-.40162z" fill="#31323d"/></g></g><g><g><path d="m32.11401 8.68859-.0312.40641-1.85659-1.26306.0312-.4064z" fill="#31323d"/></g></g><g><g><path d="m33.29218 8.03118-.03121.4064-2.9283-1.99215.0312-.4064z" fill="#31323d"/></g></g><g><g><path d="m32.32654 5.92034-.03083.40162-1.85659-1.26306.03083-.40162z" fill="#31323d"/></g></g></g></g></g></g></svg>