<svg id="Layer_1" enable-background="new 0 0 50 50" height="512" viewBox="0 0 50 50" width="512" xmlns="http://www.w3.org/2000/svg"><g><g><g><g><g enable-background="new"><g><path d="m48.4817543 37.0606499-17.0615559 9.9217415c-.6909389.3983727-1.8071232.3897209-2.4981155 0l-27.3905925-15.812584c-.6909921-.4074574-.6998052-1.0541134-.0088671-1.4524879l17.070425-9.9217396c.6821251-.3897228 1.8071232-.3988075 2.4981155 0l27.3905907 15.812582c.6909941.3983765.6909941 1.0541153-.0000002 1.452488z" fill="#373f51"/></g><g><path d="m43.4914665 34.1323013-17.0599956 9.9199219-23.5700078-13.6098614 17.059998-9.9204101z" fill="#4c5671"/></g><g><path d="m48.9955673 36.3430557v1.7189407c0 .265583-.1771812.5225143-.5226784.7262421l-17.0526905 9.9126549c-.6909389.3988075-1.8159904.3988075-2.5069828 0l-27.3817252-15.8125801c-.3543632-.2037277-.5314907-.4606628-.5314907-.7262459l.0088131-1.7275867c0 .266016.1771816.531599.5226777.7353268l27.3905926 15.8125839c.6909924.3897209 1.8071766.3983727 2.4981155 0l17.0615559-9.9217415c.3454969-.194645.5138128-.4606591.5138128-.7175942z" fill="#272e3a"/></g></g></g><g><path d="m38.9336624 41.8722382c-.9036255.5294724-2.3640213.5294724-3.276783 0-.8945427-.5201149-.9036255-1.3691444 0-1.8892555.8944893-.5205612 2.3640213-.5205612 3.2676468 0 .9036789.520111.9127617 1.3691406.0091362 1.8892555z" fill="#272e3a"/><path d="m39.0634346 40.4005699-.0020561.5221214c-.0007324.2612915-.1726112.5219231-.513916.7202644-.6911087.4016304-1.8128853.4048691-2.5085564.0032234-.3465614-.2000885-.5200119-.4644203-.5192642-.7288704l.0020409-.5221062c-.0007439.2644424.1727066.5287743.5192719.7288628.6956711.4016457 1.8174477.398407 2.5085564-.0032234.3413046-.1983451.5131834-.4589729.5139235-.720272z" fill="#373f51"/><path d="m38.5413895 39.6709709c.6956673.4016457.6937447 1.0514297.0081215 1.4498711-.6911087.4016304-1.8128853.4048691-2.5085564.0032234-.6900291-.3983917-.6937828-1.0514526-.0026741-1.453083.6856232-.3984414 1.813076-.3983994 2.503109-.0000115z" fill="#4c5671"/></g><g><path d="m24.8220425 30.7943172c1.3227825.2829514 2.0097122.9377766 1.5410843 1.4598522-.4719944.5258293-1.9202824.7192001-3.2430649.4362488-1.3177109-.281868-2.0081768-.9327297-1.5361843-1.4585571.4686298-.5220775 1.9204521-.7194099 3.2381649-.4375439z" fill="#373f51"/></g><path d="m36.3165932 1.9299682c-.002964-.000895-1.6081467 1.2817272-2.113575 1.9789795.3512001-.5638883 1.3040466-2.3799667 1.7716598-2.9089477-1.1667099.1642437-2.297451.6422062-3.4134254 1.6236403-.7214184.9621904-1.5327911 3.5220644-1.676672 4.5567551.0016212 0-.4427204-1.164474-.2505054-2.2524204-.0196362-.0067129-1.9426746 2.2560005-2.1871929 2.8838859-.2821121.6113267-.6027679 3.6957059-.3449898 5.0065227.0060406.0026855-.8635101-.2729931-.6863441-2.9850273-.0443058-.0170069-2.4370823 5.3296394-1.2049751 9.2379217-.0013428 0-.8891869-.435894-1.167944-2.3302898-.0048103-.001791-.9368477 2.7317257-.705698 5.7677727-.0024624-.0013428.5877743.797945 1.1969757.7397671.0004463.0008945-.3950577.3159561-1.1490345.2018356.0068245.0031338.1903687 2.0604305 1.953022 2.5370502-.9679527 2.9295349-1.1084766 3.2611542-2.6435051 5.9884052.0042515.1705093 1.4491596-.147686 1.4511166-.3481789 0 0 1.5544968-4.2868938 2.0248508-5.5807037-.0089493-.0031338 2.432272.2582245 3.8319244-2.3571434-.0003929 0-.9530163.1893044-1.726965-.271204-.0021248 0 1.7649479-.1172523 2.5203247-1.1761093.0093422.0031319 1.5709438-3.1161537 1.6988811-5.0248718-.0025177-.0008945-1.9894409 1.5148907-2.7382145.3472843.0039158.0008945 2.5825863-1.1201687 3.3907681-3.0494728-.0200272-.0076084 1.1324768-4.7894707 1.0593605-6.9608884-.0068779-.0026851-1.2416725 2.0080686-2.595005 3.0539479.0020714 0 1.8429871-2.6207385 2.7660179-5.198514 0-.0000003.9927903-2.4278527.9391442-3.4799967z" fill="#7bb1ff"/><g><g><path d="m41.7720528 38.769989c.1979561.1142921.2046623.3003998.0080299.4146729-.2021179.1174583-.5234375.1141815-.7213936-.0001106l-1.6798172-.969841c-.203598-.1175461-.2046623-.3003998-.0025444-.4178581.1966324-.1142693.5123138-.1142502.7159081.0032959z" fill="#4c5671"/></g><path d="m41.7800865 39.1844711c-.2021484.1176758-.5234375.1142578-.7213745 0l-1.6798706-.9697266c-.0998535-.0576172-.1495972-.1313477-.1519165-.2045898v.5146484c0 .0795898.0442505.1503906.1505737.2124023l1.6831055.9658203c.1948853.1152344.5137939.1235352.7175293 0 .0974731-.0537109.1417847-.1240234.1417847-.1953125v-.5170898c-.0038453.0703126-.0474244.1401368-.1398316.1938477z" fill="#272e3a"/><g><g><path d="m43.5984497 37.7086067c.1979561.1142883.1988678.3037643.0022354.4180336-.1966324.1142731-.5234375.1141853-.7213936-.0001068l-1.6798172-.969841c-.2035942-.1175461-.1991768-.3035889-.0025444-.4178581.1966324-.1142731.5181046-.1176186.7217026-.0000725z" fill="#4c5671"/></g><path d="m43.6007042 38.1268539c-.1966553.1142578-.5234375.1137695-.7214355-.0004883l-1.6798096-.9697266c-.1002808-.0576172-.1489868-.1323242-.1502075-.2070313l-.0063477.5205078c0 .0712891.0531616.1508789.1505737.2128906l1.6831665.965332c.1948242.1152344.522583.1152344.7263184 0 .0975342-.0527344.1417847-.1328125.1417847-.2036133v-.5185547c-.0032959.0732424-.0495606.1455081-.144043.2006838z" fill="#272e3a"/></g><g><g><path d="m45.4241142 36.6671562c.1979561.1142883.1988716.3037643.0022392.4180336-.1966324.1142731-.5234375.1141853-.7213974-.0001068l-1.6798172-.969841c-.2035942-.1175461-.199173-.3035889-.0025406-.4178581.1966324-.1142731.5181046-.1176186.7216988-.0000725z" fill="#4c5671"/></g><path d="m45.4263725 37.0854034c-.1966553.1142578-.5234375.1137695-.7214355-.0004883l-1.6798096-.9697266c-.1002808-.0576172-.1489868-.1323242-.1502075-.2070313l-.0063477.5205078c0 .0712891.0531616.1508789.1505737.2128906l1.6831665.965332c.1948242.1152344.522583.1152344.7263184 0 .0975342-.0527344.1417847-.1328125.1417847-.2036133v-.5185547c-.0032959.0732424-.0495606.1455081-.144043.2006838z" fill="#272e3a"/></g></g></g><g><g><path d="m31.5621071 44.7031746c.1979561.1142921.2046623.3003998.0080299.414669-.2021198.1174622-.5234375.1141853-.7213955-.0001068l-1.6798153-.969841c-.2035961-.1175461-.2046642-.3003998-.0025444-.4178581.1966324-.1142731.5123119-.1142502.7159081.0032959z" fill="#4c5671"/></g><path d="m31.5701427 45.1176529c-.2021484.1176758-.5234375.1142578-.7213745 0l-1.6798706-.9697266c-.0998535-.0576172-.1495972-.1313477-.1519165-.2045898v.5146484c0 .0795898.0442505.1503906.1505737.2124023l1.6831055.9658203c.1948853.1152344.5137939.1235352.7175293 0 .0974731-.0537109.1417847-.1240234.1417847-.1953125v-.5170898c-.0038452.0703125-.0474243.1401368-.1398316.1938477z" fill="#272e3a"/><g><g><path d="m33.388504 43.6417885c.1979561.1142921.1988678.3037682.0022354.4180374s-.5234375.1141815-.7213936-.0001068l-1.6798172-.9698448c-.2035961-.1175461-.1991749-.3035851-.0025425-.4178581.1966324-.1142693.5181046-.1176147.7216988-.0000687z" fill="#4c5671"/></g><path d="m33.3907585 44.0600357c-.1966553.1142578-.5234375.1137695-.7214355-.0004883l-1.6798077-.9697266c-.1002808-.0576172-.1489868-.1323242-.1502075-.2070313l-.0063477.5205078c0 .0712891.0531616.1508789.1505737.2128906l1.6831646.965332c.1948242.1152344.522583.1152344.7263184 0 .0975342-.0527344.1417847-.1328125.1417847-.2036133v-.5185547c-.0032959.0732424-.0495606.145508-.144043.2006838z" fill="#272e3a"/></g><g><g><path d="m35.2141685 42.600338c.1979561.1142921.1988716.3037682.0022392.4180374s-.5234375.1141815-.7213974-.0001068l-1.6798172-.9698448c-.2035942-.1175461-.199173-.3035851-.0025406-.4178581.1966324-.1142693.5181046-.1176147.7216988-.0000687z" fill="#4c5671"/></g><path d="m35.2164268 43.0185852c-.1966553.1142578-.5234375.1137695-.7214355-.0004883l-1.6798096-.9697266c-.1002808-.0576172-.1489868-.1323242-.1502075-.2070313l-.0063477.5205078c0 .0712891.0531616.1508789.1505737.2128906l1.6831665.965332c.1948242.1152344.522583.1152344.7263184 0 .0975342-.0527344.1417847-.1328125.1417847-.2036133v-.5185547c-.0032959.0732424-.0495605.145508-.144043.2006838z" fill="#272e3a"/></g></g></g><g><path d="m26.351799 42.5990791 1.5901394-.9240875-.3167076-.1828499-1.2755241.7412529-1.2839031-.7412605-.3146152.1828346zm13.0475655-7.5824165 1.5901222-.9240761-1.6006088-.9241142-.3146019.182827 1.283905.7412605-1.2755241.7412529zm-32.4415498-3.6147041.3146152-.1828346-1.2839022-.7412624 1.2755237-.7412529-.3110695-.1795959-1.5901394.9240875zm14.3230882-8.3236695.3146-.1828251-1.5949726-.9208584-1.5901222.924078.3110695.1795959 1.2755241-.7412529z" fill="#272e3a"/></g></g></svg>