<svg id="Layer_1" enable-background="new 0 0 36 36" height="512" viewBox="0 0 36 36" width="512" xmlns="http://www.w3.org/2000/svg"><g id="_x35_"><g><g><g><path d="m20.2 17.6c-.3.3-4.3 4.3-4.2 4.2-4.3-3.7-11.5-11-13.5-15.7-.5-1.2-.6-2-.3-2.4 1.8-1.8 11.8 6.2 18 13.9z" fill="#bf7d5a"/><path d="m20.1 17.7-4 4c-1-.8-2.1-1.8-3.2-2.8.4-1.4 3.5-3.8 5-4 1.8 1.9 1.9 2.1 2.2 2.8z" fill="#aa6256"/><g><path d="m22.8 22.3c-.7.3-1.6 1.3-1.9 2 .2.6.4 1.9.5 2.5 0 .4.2.9.4 1.4.6 1.2 1.7 2.3 3.6 3.2.3.1.7.3 1 .4 2.4.8 5 .5 7.4-1.3.1 0 .1-.1.1-.2s-.1-.2-.2-.1c-1 .2-2.9.1-3.5-2.4-.3-1.4-1.4-2.7-2.6-3.6-1-.8-2-1.2-2.6-1.2-.9-.1-1.7-.4-2.2-.7z" fill="#e3e7f0"/></g><path d="m22.8 22.3c-.7.3-1.6 1.3-1.9 2 .2.6.4 1.9.5 2.5 0 .4.2.9.4 1.4.3-1.2.7-2.7 1.7-3.5s2.5-1.1 4-.5c-.9-.8-1.9-1.2-2.5-1.2-.9-.1-1.7-.4-2.2-.7z" fill="#c9cee2"/><path d="m28.2 24.6c-.3 0-.6.1-.8.1-.6.2-.8.6-.6.8.1.2.3.3.3.4 0 .2-.1.3-.2.4-.2.1-.3.1-.5.1-.4.1-1.3.4-1.3.9 0 .2.2.4.4.4.2.1.4.1.6.2s.3.4.3.6-.2.5-.5.5c-.1 0-.3 0-.4.2-.2.3.2.5.3.7s.1.5-.1.7c-.1.2-.2.3-.2.5.3.1.6.3.9.4 4 1.4 7.3-1 7.4-1.5 0-.1-.1-.1-.2-.1-1 .2-2.9.1-3.5-2.4-.3-.9-1-2-1.9-2.9z" fill="#b0b8cf"/><path d="m27.6 24.9c-.6.2-.7.6-.6.8s.3.3.3.4c0 .2-.1.3-.2.4-.4.2-.8.1-1.5.6-.1.1-.3.2-.3.4s.2.4.4.4c.2.1.4.1.6.2.4.3.3 1-.2 1.1-.1 0-.3 0-.4.2-.1.1 0 .3.1.4l.3.3c.1.2.1.5-.1.7-.5.7.1 1.1.1 1.1 2.9 1.4 5.4.4 7.8-1.5.2-.2.2-.6.1-.9-.2-.3-.5-.4-.8-.4-1.5.2-2.4-.4-2.7-1.9-.2-.7-.5-1.4-1-2.1-.1-.1-.2-.2-.3-.2-.6-.2-1.2-.1-1.6 0z" fill="#f45170"/><path d="m18.7 15.1c-.4-.4-1.8.4-3.2 1.8s-2.2 2.9-1.8 3.2c.8.8 4.6 3.6 7.5 4.8.4.4 2.8-1.9 2.4-2.4-1.3-2.8-4.2-6.7-4.9-7.4z" fill="#57b3fe"/><path d="m23.5 22.6c.2.2-.2.8-.7 1.4-1.3-2.8-3-5.5-5.2-7.9-.2-.2-.3-.3-.5-.5.8-.5 1.4-.7 1.6-.5.8.7 3.6 4.6 4.8 7.5z" fill="#5094ff"/></g><path d="m27.1 25.2c-.1.1-.2.4-.1.5.1.2.3.3.3.4 0 .2-.1.3-.2.4-.2.1-.3.1-.5.1-.4.1-1.3.4-1.3.8 0 .2.2.4.4.4.2.1.4.1.6.2.4.3.3 1-.2 1.1-.1 0-.3 0-.4.2s.2.5.3.7.1.5-.1.7c-.5.7.1 1.1.1 1.1.2.1.4.2.6.3-.2-.2-.4-.4-.4-.7s.3-.8.1-1.1c-.1-.1-.3-.2-.3-.4s.2-.3.3-.4c.2-.1.4-.1.5-.3s.1-.5-.1-.6c-.3-.3-.9-.6-.7-1.1.1-.3.4-.4.7-.4s.6 0 .8-.3c.3-.4 0-1 .2-1.4.1-.3.4-.5.7-.5h.5c-.4-.2-1.5 0-1.8.3z" fill="#e93565"/></g><g fill="#fff"><path d="m27.2 31.4c0-.3.7-.1 1.6-.2.9 0 1.6-.2 1.6.1s-.7.6-1.6.7c-.8 0-1.5-.3-1.6-.6z" opacity=".7"/><path d="m31.5 31.3c-.2.1-.5.1-.6-.1-.1-.1 0-.3.3-.4.2-.1.5-.1.6.1.1.1-.1.3-.3.4z" opacity=".7"/><path d="m17.7 21.2c-1.2-.9-2.2-1.4-2.3-1.2s.7 1 1.9 1.9c1.1.9 2.2 1.4 2.3 1.2s-.7-1-1.9-1.9z" opacity=".7"/></g></g><path d="m12.8 17.6c-.2.2-.5.4-.8.5-3-3-7.9-8.2-9.5-12 1.7-.5 4.6.9 7.2 3.4 3.1 3 4.5 6.6 3.1 8.1z" fill="#aa6256"/><path d="m10.5 16.6c-2.9-2.9-5.2-5.8-6.7-8.1 1.2.1 2.9 1 4.4 2.5 2.2 2.1 3.2 4.5 2.3 5.6z" fill="#8a4852"/></g></svg>