<svg id="Layer_1" enable-background="new 0 0 68 68" height="512" viewBox="0 0 68 68" width="512" xmlns="http://www.w3.org/2000/svg"><g id="_x31_01"><g><g><path d="m47.9 59.8c-8.6 8.6-24.4 6.6-35.4-4.3-10.9-11-12.8-26.9-4.2-35.4l2.7-2.7 39.7 39.6z" fill="#cc104a"/></g><g><path d="m50.5 57.2c-8.6 8.6-24.4 6.6-35.4-4.3-11-11-12.9-26.8-4.3-35.4s24.4-6.6 35.3 4.3c3.3 3.3 5.8 7.1 7.4 10.9.5 1.3 1 2.5 1.3 3.8 2.2 7.8.8 15.6-4.3 20.7z" fill="#f34b58"/></g><g><path d="m43.5 24.5c8.5 8.5 10 20.8 3.4 27.5s-19 5.1-27.5-3.4-10-20.8-3.4-27.5 19-5.1 27.5 3.4z" fill="#fff"/></g><g><path d="m40.9 27.1c6.2 6.2 7.3 15.2 2.5 20s-13.8 3.8-20-2.5c-6.2-6.2-7.3-15.2-2.5-20s13.8-3.7 20 2.5z" fill="#f34b58"/></g><g><path d="m38.1 29.9c4 4 4.7 9.7 1.6 12.8s-8.8 2.4-12.8-1.6-4.7-9.7-1.6-12.8 8.9-2.4 12.8 1.6z" fill="#fff"/></g><g><path d="m35.5 32.5c1.9 1.9 2.3 4.7.8 6.3-1.6 1.5-4.4 1.2-6.3-.8-1.9-1.9-2.3-4.7-.8-6.2s4.3-1.2 6.3.7z" fill="#f34b58"/></g><g opacity=".2"><path d="m54.9 36.6-21.7.1c-2.5 0-2.6-3.8 0-3.8l20.4-.1c.5 1.3.9 2.5 1.3 3.8z" fill="#1d2943"/></g></g><g><path d="m17.4 50.6c-2.6-1.9-4.7-4.5-6.2-7.3-1.5-2.9-2.4-6.1-2.3-9.3.9 3.1 2 6 3.5 8.7 1.4 2.7 3.1 5.3 5 7.9z" fill="#fff"/></g><g><path d="m60.1 7.9c.8.8.8 2 0 2.7l-25.6 25.5c-.7.7-1.9.7-2.7 0-.7-.7-.7-1.9 0-2.7l25.6-25.5c.8-.8 2-.8 2.7 0z" fill="#1d2943"/></g><g><path d="m59.7 10.9 4.5 1.3c.8.2 1.1 1.2.5 1.8l-1.2 1.2c-.5.5-1.3.7-2 .5l-1.5-.4.3.3c.8.8.8 2.1 0 2.9l-2.5 2.5c-.5.5-1.3.7-2 .5l-5.2-1.5z" fill="#ffd06c"/></g><g><path d="m57.1 8.2-1.3-4.5c-.2-.8-1.2-1.1-1.8-.5l-3.6 3.6c-.5.5-.7 1.3-.5 2l.4 1.5-1-1c-.4-.4-1.1-.4-1.5 0l-.8.9c-.5.5-.7 1.3-.5 2l1.5 5.1z" fill="#ffd06c"/></g><g><path d="m50.2 16.8c.9-1.2 2-2.4 3.1-3.5.6-.5 2.4-2.3 1.7-1.6.6-.5 1.2-1 1.8-1.5-.5.6-1 1.2-1.5 1.8s-1.1 1.1-1.6 1.7c-1.1 1.1-2.2 2.1-3.5 3.1z" fill="#fff"/></g></g></svg>