<svg id="Layer_1" enable-background="new 0 0 50 50" height="512" viewBox="0 0 50 50" width="512" xmlns="http://www.w3.org/2000/svg"><g><g><g><g><g enable-background="new"><path d="m38.36598 30.86323-8.44638-4.87658c-.3867-.2233-.73647-.24431-.98874-.09756l-4.59466 2.67005c.25227-.14659.60202-.12558.98874.09756l8.44635 4.87658c.76585.44215 1.3861 1.51392 1.38359 2.39407l4.59468-2.67021c.0025-.87999-.61772-1.95176-1.38358-2.39391z" fill="#e3e7f0"/><g><path d="m33.7713 33.53328c.76585.44217 1.38609 1.51396 1.3836 2.39399l-11.22259-6.47937c.00249-.88003.62469-1.2345 1.39263-.79114z" fill="#b4bed7"/></g></g></g><g><g><g><g><g enable-background="new"><g><path d="m34.48104 24.69454-.02274 6.91277-4.92254-2.84203.02274-6.91277z" fill="#b4bed7"/></g></g></g><g><path d="m35.37579 24.17846-.02631 6.90925-.89379.51688.02626-6.90925-4.92477-2.83897.89384-.52586z" fill="#9da9c1"/></g></g><g><g><path d="m20.15279 17.98307-.00491 1.74143c-.00167.57546.40305 1.28056.90752 1.57164l23.44252 13.53499c.50039.28857.91181.05437.91348-.52026l.00491-1.74227z" fill="#d3dbea"/></g><g><path d="m32.4577 25.7948c.32793.18933.5901.64743.58904 1.02032-.00107.37672-.26496.52726-.59289.33793-.32452-.18736-.59011-.64359-.58904-1.02032.00106-.37289.26837-.52529.59289-.33793z" fill="#9da9c1"/></g></g></g><path d="m45.4163 32.56861-.00502 1.74394c0 .28271-.10278.48178-.26337.57797l1.02483-.59721c.16059-.0895.26337-.29526.26337-.57797l.00502-1.73809z" fill="#b4bed7"/></g><path d="m45.45877 16.83187-.04047 15.73891-25.26059-14.58643.03035-15.73842c.01012-.57649.41441-.81883.91983-.52565l23.44111 13.53513c.4953.29269.90977 1.00046.90977 1.57646z" fill="#373f51"/><path d="m20.96704 18.45212.02912-15.87747 23.14886 13.38113c.24678.14585.50541.59006.50541.87608l-.03702 15.29458z" fill="#7bb1ff"/><g><path d="m46.47972 16.23564v1.14212l-.04047 14.5963-1.02095.59673.03035-14.60667.01012-1.13225c0-.57599-.40436-1.28377-.90977-1.57646l-23.44111-13.53513c-.25271-.14165-.48518-.16189-.64694-.06071l1.03106-.59623c.16177-.10118.38412-.08095.64694.06022l23.44111 13.53513c.4953.29318.90972 1.00095.89966 1.57695z" fill="#4c5671"/></g></g><g><path d="m31.87887 12.00503c1.01345.58511 1.90532 1.69794 2.42336 2.90281.28801-.01643.61687.06871.96764.27122 1.10558.63831 2.00066 2.18737 1.99706 3.45906-.00022.07654-.00376.15115-.01063.22128 1.19143.46399 2.3109 2.17579 2.30684 3.60977-.0036 1.27038-.90342 1.78315-2.01011 1.1442-.49507-.28583-.94848-.75582-1.29827-1.30143-.6483.42206-1.49628.03785-2.09897-.453-1.34147 1.16352-3.5499-1.02609-4.20102-2.96077-.20781-.03694-.42994-.11917-.66194-.25311-1.10669-.63895-1.99956-2.18673-1.99595-3.45842.00323-1.13772.72409-1.66821 1.67035-1.30592-.00425-.07142-.00627-.14155-.00607-.21172.00522-1.84562 1.31151-2.5913 2.91771-1.66397z" fill="#fff"/></g></g><g><g><g enable-background="new"><g><path d="m42.72903 42.69362-.00156.9023-9.29903 5.40401.00156-.9023z" fill="#9da9c1"/></g><g><path d="m33.43 48.09763-.00156.9023-29.90834-17.26759.00156-.9023z" fill="#9da9c1"/></g><g><path d="m42.72903 42.69362-9.29903 5.40401-29.90834-17.26759 9.29903-5.40401z" fill="#b4bed7"/></g></g></g><g><g enable-background="new"><g><path d="m13.48454 27.21288-.00095.33629-.81538.47385.00095-.33629z" fill="#d3dbea"/></g><g><path d="m12.66916 27.68673-.00095.33629-1.47937-.85412.00095-.33629z" fill="#d3dbea"/></g><g><path d="m13.48454 27.21288-.81538.47385-1.47937-.85412.81538-.47384z" fill="#fff"/></g></g><g enable-background="new"><g><path d="m15.46875 28.35847-.00095.33628-.81538.47385.00095-.33629z" fill="#d3dbea"/></g><g><path d="m14.65337 28.83231-.00095.33629-1.47938-.85412.00096-.33628z" fill="#d3dbea"/></g><g><path d="m15.46875 28.35847-.81538.47384-1.47937-.85411.81538-.47385z" fill="#fff"/></g></g><g enable-background="new"><g><path d="m17.45296 29.50405-.00096.33628-.81538.47385.00096-.33629z" fill="#d3dbea"/></g><g><path d="m16.63758 29.97789-.00096.33629-1.47498-.85158.00095-.33629z" fill="#d3dbea"/></g><g><path d="m17.45296 29.50405-.81538.47384-1.47499-.85158.81538-.47384z" fill="#fff"/></g></g><g enable-background="new"><g><path d="m19.44157 30.65217-.00096.33629-.81538.47385.00096-.33629z" fill="#d3dbea"/></g><g><path d="m18.62619 31.12602-.00096.33629-1.47938-.85413.00095-.33628z" fill="#d3dbea"/></g><g><path d="m19.44157 30.65217-.81538.47385-1.47939-.85412.81538-.47385z" fill="#fff"/></g></g><g enable-background="new"><g><path d="m21.42577 31.79776-.00095.33628-.81538.47385.00095-.33629z" fill="#d3dbea"/></g><g><path d="m20.61039 32.2716-.00095.33629-1.47939-.85413.00096-.33628z" fill="#d3dbea"/></g><g><path d="m21.42577 31.79776-.81538.47384-1.47938-.85412.81538-.47385z" fill="#fff"/></g></g><g enable-background="new"><g><path d="m23.40998 32.94334-.00095.33628-.81538.47385.00095-.33629z" fill="#d3dbea"/></g><g><path d="m22.5946 33.41718-.00095.33629-1.47499-.85158.00096-.33628z" fill="#d3dbea"/></g><g><path d="m23.40998 32.94334-.81538.47384-1.47498-.85157.81538-.47386z" fill="#fff"/></g></g><g enable-background="new"><g><path d="m25.39858 34.09145-.00096.33629-.81538.47384.00096-.33628z" fill="#d3dbea"/></g><g><path d="m24.5832 34.5653-.00096.33628-1.47937-.85411.00095-.33628z" fill="#d3dbea"/></g><g><path d="m25.39858 34.09145-.81538.47385-1.47938-.85411.81538-.47385z" fill="#fff"/></g></g><g enable-background="new"><g><path d="m27.38278 35.23704-.00095.33628-.81538.47385.00095-.33629z" fill="#d3dbea"/></g><g><path d="m26.5674 35.71088-.00095.33629-1.47937-.85412.00095-.33628z" fill="#d3dbea"/></g><g><path d="m27.38278 35.23704-.81538.47384-1.47937-.85411.81538-.47385z" fill="#fff"/></g></g><g enable-background="new"><g><path d="m29.367 36.38263-.00095.33628-.81538.47385.00095-.33628z" fill="#d3dbea"/></g><g><path d="m28.55162 36.85648-.00095.33628-1.475-.85159.00096-.33628z" fill="#d3dbea"/></g><g><path d="m29.367 36.38263-.81538.47385-1.47499-.85159.81538-.47385z" fill="#fff"/></g></g><g enable-background="new"><g><path d="m34.80602 39.52285-.00095.33628-.81538.47385.00095-.33629z" fill="#d3dbea"/></g><g><path d="m33.99064 39.99669-.00095.33629-1.47939-.85413.00095-.33628z" fill="#d3dbea"/></g><g><path d="m34.80602 39.52285-.81538.47384-1.47939-.85412.81538-.47385z" fill="#fff"/></g></g><g enable-background="new"><g><path d="m36.79023 40.66843-.00096.33628-.81538.47385.00096-.33629z" fill="#d3dbea"/></g><g><path d="m35.97485 41.14227-.00096.33629-1.47938-.85412.00095-.33629z" fill="#d3dbea"/></g><g><path d="m36.79023 40.66843-.81538.47384-1.47939-.85412.81538-.47385z" fill="#fff"/></g></g><g enable-background="new"><g><path d="m38.77443 41.81401-.00095.33629-.81538.47384.00095-.33628z" fill="#d3dbea"/></g><g><path d="m37.95905 42.28786-.00095.33628-1.47498-.85158.00095-.33628z" fill="#d3dbea"/></g><g><path d="m38.77443 41.81401-.81538.47385-1.47498-.85158.81538-.47385z" fill="#fff"/></g></g><g enable-background="new"><g><path d="m40.76303 42.96213-.00095.33628-.81538.47385.00095-.33629z" fill="#d3dbea"/></g><g><path d="m39.94765 43.43597-.00095.33629-1.47938-.85412.00096-.33628z" fill="#d3dbea"/></g><g><path d="m40.76303 42.96213-.81538.47384-1.47937-.85411.81538-.47385z" fill="#fff"/></g></g><g enable-background="new"><g><path d="m33.65464 40.19195-.00095.33629-1.29523.7527.00095-.33628z" fill="#d3dbea"/></g><g><path d="m32.35941 40.94466-.00095.33628-1.47939-.85412.00095-.33628z" fill="#d3dbea"/></g><g><path d="m33.65464 40.19195-1.29523.75271-1.47939-.85412 1.29524-.75271z" fill="#fff"/></g></g><g enable-background="new"><g><path d="m35.63885 41.33753-.00095.33629-1.29524.75271.00095-.33629z" fill="#d3dbea"/></g><g><path d="m34.34361 42.09024-.00095.33629-1.47939-.85413.00096-.33628z" fill="#d3dbea"/></g><g><path d="m35.63885 41.33753-1.29524.75271-1.47938-.85412 1.29524-.75271z" fill="#fff"/></g></g><g enable-background="new"><g><path d="m37.62306 42.48312-.00096.33628-1.29523.75271.00095-.33629z" fill="#d3dbea"/></g><g><path d="m36.32782 43.23582-.00095.33629-1.47498-.85158.00095-.33628z" fill="#d3dbea"/></g><g><path d="m37.62306 42.48312-1.29524.7527-1.47498-.85157 1.29524-.75272z" fill="#fff"/></g></g><g enable-background="new"><g><path d="m39.61166 43.63123-.00096.33629-1.29524.75271.00096-.33629z" fill="#d3dbea"/></g><g><path d="m38.31642 44.38394-.00096.33629-1.47937-.85412.00095-.33628z" fill="#d3dbea"/></g><g><path d="m39.61166 43.63123-1.29524.75271-1.47938-.85411 1.29524-.75271z" fill="#fff"/></g></g><g enable-background="new"><g><path d="m32.02365 41.13978-.00095.33629-1.29974.75532.00096-.33628z" fill="#d3dbea"/></g><g><path d="m30.72392 41.89511-.00096.33628-1.47939-.85412.00096-.33629z" fill="#d3dbea"/></g><g><path d="m32.02365 41.13978-1.29973.75533-1.47939-.85413 1.29973-.75532z" fill="#fff"/></g></g><g enable-background="new"><g><path d="m34.00785 42.28537-.00095.33628-1.29973.75532.00095-.33628z" fill="#d3dbea"/></g><g><path d="m32.70812 43.04069-.00095.33628-1.47939-.85412.00095-.33629z" fill="#d3dbea"/></g><g><path d="m34.00785 42.28537-1.29973.75532-1.47939-.85413 1.29974-.75532z" fill="#fff"/></g></g><g enable-background="new"><g><path d="m35.99206 43.43095-.00095.33628-1.29973.75533.00095-.33629z" fill="#d3dbea"/></g><g><path d="m34.69233 44.18627-.00095.33629-1.47499-.85159.00096-.33628z" fill="#d3dbea"/></g><g><path d="m35.99206 43.43095-1.29973.75532-1.47498-.85158 1.29973-.75533z" fill="#fff"/></g></g><g enable-background="new"><g><path d="m37.98066 44.57906-.00095.33629-1.29974.75532.00095-.33628z" fill="#d3dbea"/></g><g><path d="m36.68092 45.33439-.00095.33628-1.47937-.85411.00095-.33629z" fill="#d3dbea"/></g><g><path d="m37.98066 44.57906-1.29974.75533-1.47937-.85412 1.29974-.75532z" fill="#fff"/></g></g><g enable-background="new"><g><path d="m30.38816 42.09023-.00096.33628-1.29547.75285.00095-.33629z" fill="#d3dbea"/></g><g><path d="m29.09268 42.84307-.00095.33629-1.47939-.85413.00095-.33628z" fill="#d3dbea"/></g><g><path d="m30.38816 42.09023-1.29548.75284-1.47939-.85412 1.29548-.75285z" fill="#fff"/></g></g><g enable-background="new"><g><path d="m32.37236 43.23581-.00095.33628-1.29547.75285.00095-.33628z" fill="#d3dbea"/></g><g><path d="m31.07689 43.98866-.00095.33628-1.47939-.85412.00095-.33629z" fill="#d3dbea"/></g><g><path d="m32.37236 43.23581-1.29547.75285-1.47939-.85413 1.29547-.75285z" fill="#fff"/></g></g><g enable-background="new"><g><path d="m34.35657 44.38139-.00095.33628-1.29548.75285.00096-.33628z" fill="#d3dbea"/></g><g><path d="m33.0611 45.13424-.00096.33628-1.47498-.85158.00095-.33628z" fill="#d3dbea"/></g><g><path d="m34.35657 44.38139-1.29547.75285-1.47499-.85158 1.29548-.75285z" fill="#fff"/></g></g><g enable-background="new"><g><path d="m30.74113 44.18378-.00095.33628-1.29974.75533.00096-.33629z" fill="#d3dbea"/></g><g><path d="m29.4414 44.9391-.00096.33629-3.46359-1.99971.00095-.33628z" fill="#d3dbea"/></g><g><path d="m30.74113 44.18378-1.29973.75532-3.4636-1.9997 1.29974-.75533z" fill="#fff"/></g></g><g enable-background="new"><g><path d="m32.72533 45.32936-.00095.33629-1.29973.75532.00095-.33629z" fill="#d3dbea"/></g><g><path d="m31.4256 46.08468-.00095.33629-1.47498-.85158.00095-.33629z" fill="#d3dbea"/></g><g><path d="m32.72533 45.32936-1.29973.75532-1.47498-.85158 1.29973-.75532z" fill="#fff"/></g></g><g enable-background="new"><g><path d="m31.3556 37.53075-.00095.33628-.81538.47385.00095-.33629z" fill="#d3dbea"/></g><g><path d="m30.54022 38.00459-.00095.33629-1.47939-.85413.00095-.33628z" fill="#d3dbea"/></g><g><path d="m31.3556 37.53075-.81538.47384-1.47939-.85412.81538-.47385z" fill="#fff"/></g></g><g enable-background="new"><g><path d="m13.07066 28.30778-.00096.33628-1.29523.75271.00095-.33628z" fill="#d3dbea"/></g><g><path d="m11.77542 29.06049-.00095.33628-2.21687-1.2799.00096-.33629z" fill="#d3dbea"/></g><g><path d="m13.07066 28.30778-1.29524.75271-2.21686-1.27991 1.29523-.75271z" fill="#fff"/></g></g><g enable-background="new"><g><path d="m15.05486 29.45336-.00095.33629-1.29524.75271.00096-.33629z" fill="#d3dbea"/></g><g><path d="m13.75963 30.20607-.00096.33629-1.47498-.85158.00095-.33629z" fill="#d3dbea"/></g><g><path d="m15.05486 29.45336-1.29523.75271-1.47499-.85158 1.29524-.75271z" fill="#fff"/></g></g><g enable-background="new"><g><path d="m17.04348 30.60149-.00096.33628-1.29524.75271.00096-.33628z" fill="#d3dbea"/></g><g><path d="m15.74824 31.3542-.00096.33628-1.47938-.85412.00095-.33629z" fill="#d3dbea"/></g><g><path d="m17.04348 30.60149-1.29524.75271-1.47939-.85413 1.29524-.75271z" fill="#fff"/></g></g><g enable-background="new"><g><path d="m19.02768 31.74707-.00095.33628-1.29524.75271.00095-.33628z" fill="#d3dbea"/></g><g><path d="m17.73244 32.49978-.00095.33628-1.47939-.85412.00096-.33629z" fill="#d3dbea"/></g><g><path d="m19.02768 31.74707-1.29524.75271-1.47938-.85413 1.29523-.7527z" fill="#fff"/></g></g><g enable-background="new"><g><path d="m21.01189 32.89265-.00096.33629-1.29523.75271.00095-.33629z" fill="#d3dbea"/></g><g><path d="m19.71665 33.64536-.00095.33629-1.47498-.85158.00095-.33629z" fill="#d3dbea"/></g><g><path d="m21.01189 32.89265-1.29524.75271-1.47498-.85158 1.29524-.75271z" fill="#fff"/></g></g><g enable-background="new"><g><path d="m23.00049 34.04077-.00096.33628-1.29524.75271.00096-.33628z" fill="#d3dbea"/></g><g><path d="m21.70525 34.79348-.00096.33628-1.47937-.85411.00096-.33629z" fill="#d3dbea"/></g><g><path d="m23.00049 34.04077-1.29524.75271-1.47937-.85412 1.29523-.75271z" fill="#fff"/></g></g><g enable-background="new"><g><path d="m24.98469 35.18635-.00095.33629-1.29524.7527.00095-.33628z" fill="#d3dbea"/></g><g><path d="m23.68945 35.93906-.00095.33628-1.47937-.85411.00095-.33628z" fill="#d3dbea"/></g><g><path d="m24.98469 35.18635-1.29524.75271-1.47937-.85411 1.29524-.75272z" fill="#fff"/></g></g><g enable-background="new"><g><path d="m30.20423 38.19985-.00096.33629-1.29524.75271.00096-.33629z" fill="#d3dbea"/></g><g><path d="m28.90899 38.95256-.00096.33629-4.7103-2.7195.00095-.33629z" fill="#d3dbea"/></g><g><path d="m30.20423 38.19985-1.29524.75271-4.71031-2.7195 1.29524-.75271z" fill="#fff"/></g></g><g enable-background="new"><g><path d="m12.68638 29.9754-.00096.33629-1.29973.75532.00095-.33628z" fill="#d3dbea"/></g><g><path d="m11.38664 30.73073-.00095.33628-3.46358-1.9997.00095-.33628z" fill="#d3dbea"/></g><g><path d="m12.68638 29.9754-1.29974.75533-3.46358-1.9997 1.29974-.75532z" fill="#fff"/></g></g><g enable-background="new"><g><path d="m14.67058 31.12099-.00095.33628-1.29973.75532.00095-.33628z" fill="#d3dbea"/></g><g><path d="m13.37085 31.87631-.00095.33628-1.47499-.85158.00096-.33628z" fill="#d3dbea"/></g><g><path d="m14.67058 31.12099-1.29973.75532-1.47498-.85158 1.29973-.75532z" fill="#fff"/></g></g><g enable-background="new"><g><path d="m16.65919 32.26911-.00095.33629-1.29973.75532.00095-.33629z" fill="#d3dbea"/></g><g><path d="m15.35946 33.02443-.00095.33629-1.47939-.85412.00095-.33629z" fill="#d3dbea"/></g><g><path d="m16.65919 32.26911-1.29973.75532-1.47939-.85412 1.29974-.75532z" fill="#fff"/></g></g><g enable-background="new"><g><path d="m18.6434 33.41469-.00095.33629-1.29974.75532.00096-.33628z" fill="#d3dbea"/></g><g><path d="m17.34367 34.17002-.00096.33628-1.47938-.85412.00095-.33629z" fill="#d3dbea"/></g><g><path d="m18.6434 33.41469-1.29973.75533-1.47939-.85413 1.29973-.75532z" fill="#fff"/></g></g><g enable-background="new"><g><path d="m20.62761 34.56028-.00096.33628-1.29973.75532.00095-.33628z" fill="#d3dbea"/></g><g><path d="m19.32787 35.3156-.00095.33628-1.47498-.85158.00095-.33628z" fill="#d3dbea"/></g><g><path d="m20.62761 34.56028-1.29974.75532-1.47498-.85158 1.29974-.75533z" fill="#fff"/></g></g><g enable-background="new"><g><path d="m9.06668 29.78027-.00096.33628-1.29547.75285.00095-.33629z" fill="#d3dbea"/></g><g><path d="m7.7712 30.53311-.00095.33629-1.47937-.85412.00095-.33628z" fill="#d3dbea"/></g><g><path d="m9.06668 29.78027-1.29548.75284-1.47937-.85411 1.29548-.75285z" fill="#fff"/></g></g><g enable-background="new"><g><path d="m11.05088 30.92585-.00095.33628-1.29547.75285.00095-.33628z" fill="#d3dbea"/></g><g><path d="m9.75541 31.6787-.00095.33628-1.47938-.85412.00096-.33628z" fill="#d3dbea"/></g><g><path d="m11.05088 30.92585-1.29547.75285-1.47937-.85412 1.29547-.75285z" fill="#fff"/></g></g><g enable-background="new"><g><path d="m13.03509 32.07143-.00095.33628-1.29548.75285.00096-.33628z" fill="#d3dbea"/></g><g><path d="m11.73962 32.82428-.00096.33628-1.47498-.85158.00095-.33628z" fill="#d3dbea"/></g><g><path d="m13.03509 32.07143-1.29547.75285-1.47499-.85158 1.29548-.75285z" fill="#fff"/></g></g><g enable-background="new"><g><path d="m15.0237 33.21955-.00095.33629-1.29548.75285.00096-.33629z" fill="#d3dbea"/></g><g><path d="m13.72823 33.9724-.00096.33629-1.47938-.85413.00095-.33628z" fill="#d3dbea"/></g><g><path d="m15.0237 33.21955-1.29547.75285-1.47939-.85412 1.29548-.75285z" fill="#fff"/></g></g><g enable-background="new"><g><path d="m17.00791 34.36514-.00095.33628-1.29548.75285.00095-.33629z" fill="#d3dbea"/></g><g><path d="m15.71243 35.11798-.00095.33629-1.47939-.85413.00096-.33628z" fill="#d3dbea"/></g><g><path d="m17.00791 34.36514-1.29548.75284-1.47938-.85412 1.29547-.75285z" fill="#fff"/></g></g><g enable-background="new"><g><path d="m18.99212 35.51072-.00096.33628-1.29547.75285.00095-.33628z" fill="#d3dbea"/></g><g><path d="m17.69664 36.26357-.00095.33628-1.47498-.85158.00095-.33628z" fill="#d3dbea"/></g><g><path d="m18.99212 35.51072-1.29548.75285-1.47498-.85158 1.29547-.75285z" fill="#fff"/></g></g><g enable-background="new"><g><path d="m22.61621 35.70839-.00096.33629-1.29973.75532.00095-.33629z" fill="#d3dbea"/></g><g><path d="m21.31647 36.46371-.00095.33629-1.47937-.85412.00095-.33628z" fill="#d3dbea"/></g><g><path d="m22.61621 35.70839-1.29974.75532-1.47937-.85411 1.29973-.75533z" fill="#fff"/></g></g><g enable-background="new"><g><path d="m24.60041 36.85397-.00095.33629-1.29974.75532.00096-.33628z" fill="#d3dbea"/></g><g><path d="m23.30068 37.6093-.00096.33628-1.47937-.85412.00095-.33628z" fill="#d3dbea"/></g><g><path d="m24.60041 36.85397-1.29973.75533-1.47938-.85412 1.29974-.75532z" fill="#fff"/></g></g><g enable-background="new"><g><path d="m20.98071 36.65884-.00095.33628-1.29548.75285.00096-.33628z" fill="#d3dbea"/></g><g><path d="m19.68524 37.41169-.00096.33628-1.47937-.85412.00096-.33628z" fill="#d3dbea"/></g><g><path d="m20.98071 36.65884-1.29547.75285-1.47937-.85412 1.29547-.75285z" fill="#fff"/></g></g><g enable-background="new"><g><path d="m28.57323 39.14768-.00095.33629-1.29974.75532.00095-.33629z" fill="#d3dbea"/></g><g><path d="m27.27349 39.903-.00095.33629-3.46359-1.99971.00095-.33628z" fill="#d3dbea"/></g><g><path d="m28.57323 39.14768-1.29974.75532-3.46359-1.9997 1.29974-.75532z" fill="#fff"/></g></g><g enable-background="new"><g><path d="m24.94914 38.95001-.00095.33628-1.29548.75285.00096-.33628z" fill="#d3dbea"/></g><g><path d="m23.65367 39.70286-.00096.33628-1.47499-.85159.00095-.33628z" fill="#d3dbea"/></g><g><path d="m24.94914 38.95001-1.29547.75285-1.475-.85159 1.29547-.75285z" fill="#fff"/></g></g><g enable-background="new"><g><path d="m9.41965 31.87382-.00095.33628-1.29974.75532.00096-.33628z" fill="#d3dbea"/></g><g><path d="m8.11992 32.62914-.00096.33628-3.46357-1.99969.00095-.33629z" fill="#d3dbea"/></g><g><path d="m9.41965 31.87382-1.29973.75532-3.46358-1.9997 1.29973-.75532z" fill="#fff"/></g></g><g enable-background="new"><g><path d="m17.44868 36.50938-.00096.33628-1.29973.75532.00095-.33628z" fill="#d3dbea"/></g><g><path d="m16.14894 37.2647-.00095.33628-7.5198-4.34155.00095-.33629z" fill="#d3dbea"/></g><g><path d="m17.44868 36.50938-1.29974.75532-7.5198-4.34156 1.29974-.75532z" fill="#fff"/></g></g><g enable-background="new"><g><path d="m19.34948 37.60681-.00095.33628-1.29974.75532.00096-.33628z" fill="#d3dbea"/></g><g><path d="m18.04975 38.36213-.00096.33628-1.47937-.85411.00095-.33629z" fill="#d3dbea"/></g><g><path d="m19.34948 37.60681-1.29973.75532-1.47938-.85412 1.29974-.75532z" fill="#fff"/></g></g><g enable-background="new"><g><path d="m21.33368 38.75239-.00095.33628-1.29973.75532.00095-.33628z" fill="#d3dbea"/></g><g><path d="m20.03395 39.50771-.00095.33628-1.47937-.85411.00095-.33629z" fill="#d3dbea"/></g><g><path d="m21.33368 38.75239-1.29973.75532-1.47937-.85412 1.29973-.75532z" fill="#fff"/></g></g><g enable-background="new"><g><path d="m23.31791 39.89798-.00096.33628-1.29973.75533.00095-.33629z" fill="#d3dbea"/></g><g><path d="m22.01817 40.6533-.00095.33629-1.475-.85159.00096-.33629z" fill="#d3dbea"/></g><g><path d="m23.31791 39.89798-1.29974.75532-1.47499-.85159 1.29973-.75532z" fill="#fff"/></g></g><g enable-background="new"><g><path d="m25.3065 41.0461-.00095.33628-1.29973.75532.00095-.33628z" fill="#d3dbea"/></g><g><path d="m24.00677 41.80142-.00095.33628-1.47939-.85412.00095-.33629z" fill="#d3dbea"/></g><g><path d="m25.3065 41.0461-1.29973.75532-1.47939-.85413 1.29974-.75532z" fill="#fff"/></g></g><g enable-background="new"><g><path d="m36.34517 45.52951-.00096.33629-2.93096 1.70328.00095-.33628z" fill="#d3dbea"/></g><g><path d="m33.4142 47.2328-.00095.33628-1.47938-.85411.00096-.33629z" fill="#d3dbea"/></g><g><path d="m36.34517 45.52951-2.93097 1.70329-1.47937-.85412 2.93097-1.70329z" fill="#fff"/></g></g></g></g></g></svg>